ply
format ascii 1.0
comment Created by Open3D
element vertex 612
property double x
property double y
property double z
property double nx
property double ny
property double nz
property uchar red
property uchar green
property uchar blue
end_header
0.0192032 -0.00401544 -0.176636 0.461477 0.630067 0.597637 255 0 0
-0.0278338 0.012055 -0.172607 -0.17433 -0.0339805 0.923539 255 0 0
-0.0199432 0.00955582 -0.170654 0 0 1 255 0 0
-0.0153446 0.0338084 -0.1828 0.132702 0.270588 0.835862 255 0 0
-0.0344805 0.0239127 -0.176636 -0.384176 0.286002 0.827914 255 0 0
-0.0347663 0.0293037 -0.179505 -0.400197 0.476137 0.761861 255 0 0
-0.0224915 0.0332642 -0.179688 0.0142573 0.528819 0.746583 255 0 0
-0.0228094 0.00181669 -0.172796 -0.234806 -0.190907 0.841847 255 0 0
-0.0298407 0.0315192 -0.179453 -0.31466 0.59539 0.678371 255 0 0
0.0200373 -0.00303157 -0.178284 0.429546 0.501873 0.649574 255 0 0
-0.000115242 -0.0206111 -0.173054 -0.209056 -0.236017 0.835922 255 0 0
-0.0106354 0.0295868 -0.180664 0.647997 0.671997 0.358498 255 0 0
-0.0269511 -0.000325871 -0.175659 -0.0400577 -0.0397396 0.902171 255 0 0
-0.0174764 -0.0055186 -0.17385 -0.261012 -0.301468 0.798934 255 0 0
0.0113678 0.00102711 -0.174561 0.408562 0.407503 0.667192 255 0 0
-0.0406596 0.0196737 -0.180664 -0.275764 0.0810912 0.863113 255 0 0
0.00524012 0.0025146 -0.172607 0.23008 0.286809 0.818645 255 0 0
0.00229393 0.00188819 -0.17136 0.141148 0.14116 0.890884 255 0 0
0.00465425 0.00671641 -0.174072 0.291921 0.324516 0.764402 255 0 0
-0.018275 0.028656 -0.176636 0.200802 0.532348 0.755847 255 0 0
-0.000295125 0.0116773 -0.174235 0.259861 0.259917 0.796023 255 0 0
-0.022611 0.0277329 -0.175659 0 0.371134 0.83505 255 0 0
0.0151003 -0.00773748 -0.172672 0.118461 0.223699 0.871009 255 0 0
-0.0203007 0.0290309 -0.176496 0.0966996 0.493741 0.773454 255 0 0
-0.0109154 0.0163177 -0.171631 0.240426 0.241178 0.809823 255 0 0
0.0173291 -0.00310979 -0.176147 0.375076 0.423899 0.703432 255 0 0
-0.0151916 0.0316986 -0.181133 0.130094 0.646238 0.713886 255 0 0
-0.0103645 -0.0160633 -0.176093 -0.24603 -0.247482 0.765369 255 0 0
0.00456436 0.00155695 -0.171631 0.165335 0.177221 0.874235 255 0 0
-0.0247372 -0.000387607 -0.174561 -0.248128 -0.21944 0.833884 255 0 0
0.0164489 -0.012268 -0.171631 0 0 1 255 0 0
0.00753657 -0.013073 -0.170654 0.00852194 0.03913 0.981464 255 0 0
-0.0349426 0.0169367 -0.175952 -0.42965 0.0816632 0.817713 255 0 0
0.0017271 0.0165419 -0.179688 0.526862 0.302707 0.686585 255 0 0
-0.0253565 0.0367432 -0.183088 -0.0859814 0.347548 0.756597 255 0 0
-0.000141307 0.00188059 -0.170735 0.0717376 0.130982 0.921268 255 0 0
-0.0335236 0.020134 -0.175659 -0.514633 0.33823 0.743785 255 0 0
0.00914764 0.0126114 -0.182617 0.32852 0.32852 0.184793 255 0 0
-0.0363464 0.0194448 -0.176636 -0.282666 0 0.843333 255 0 0
-0.00247418 -0.000502869 -0.170654 0.143696 0.0420303 0.920146 255 0 0
-0.00648117 0.0131454 -0.172607 0.602038 0.600169 0.526638 255 0 0
-0.0150935 0.0144081 -0.170654 0 0 1 255 0 0
-0.0147922 -0.0102425 -0.174486 -0.223552 -0.122174 0.881467 255 0 0
-0.00811577 -0.0108426 -0.172607 -0.280465 -0.22474 0.829157 255 0 0
0.00661787 0.00871023 -0.176636 0.392443 0.391549 0.703631 255 0 0
-0.0233658 0.00390492 -0.172607 -0.319802 -0.189195 0.822995 255 0 0
-0.00576591 0.00347519 -0.169556 0.397849 0.39754 0.713068 255 0 0
0.00128746 -0.0191498 -0.172607 -0.376552 -0.745258 0.550272 255 0 0
0.00713565 0.00424557 -0.174235 0.30483 0.282295 0.771873 255 0 0
0.00750542 -0.00796795 -0.170825 0.247999 -0.0467033 0.88101 255 0 0
-0.0252815 0.0291854 -0.176411 0.0128893 0.460168 0.807933 255 0 0
-0.00505857 -0.000341548 -0.169556 0.13792 -0.121105 0.825415 255 0 0
-0.0123906 0.0195295 -0.172747 0.14188 0.226627 0.871338 255 0 0
0.00228326 -0.013073 -0.170654 0 0 1 255 0 0
-0.0219981 0.035553 -0.182617 0.126191 0.809747 0.543226 255 0 0
-0.0175171 0.0144081 -0.170654 0 0 1 255 0 0
-0.012693 -0.00297552 -0.170953 -0.20044 -0.14531 0.878574 255 0 0
-0.0197284 0.035141 -0.182617 0.125666 0.339884 0.739636 255 0 0
-0.00702238 -0.017149 -0.174561 -0.234736 -0.320035 0.790717 255 0 0
-0.0096817 0.0225728 -0.17574 0.358439 0.41384 0.700606 255 0 0
-0.0326696 0.0347697 -0.182617 -0.0558274 0.157628 0.935449 255 0 0
-0.0102698 -0.0054085 -0.171061 -0.160523 -0.189791 0.866735 255 0 0
-0.00715431 -0.0100673 -0.171631 -0.168268 -0.168281 0.884891 255 0 0
-0.027504 0.0367279 -0.183167 0 0.431124 0.736071 255 0 0
-0.0261078 0.0086441 -0.172607 -0.584459 -0.591764 0.555179 255 0 0
-0.00375652 0.0219193 -0.179138 0.33444 0.326975 0.176738 255 0 0
-0.0323792 0.0359802 -0.182617 0 0 1 255 0 0
-0.0329323 0.0221386 -0.17574 -0.3564 0.236064 0.837385 255 0 0
-0.00498962 -0.00539398 -0.170654 -0.00873456 -0.0174279 0.992011 255 0 0
-0.00432968 -0.0224228 -0.176636 -0.621036 -0.40261 0.596827 255 0 0
-0.0265259 0.0167648 -0.171631 -0.413779 0.12717 0.816652 255 0 0
-0.018219 0.0336304 -0.181641 0.317917 0.639069 0.684721 255 0 0
0.0166919 -0.0110397 -0.171631 0.153258 0.138709 0.897096 255 0 0
-0.0300858 0.0221532 -0.174268 -0.307653 0.212925 0.861519 255 0 0
0.0125156 -0.00306298 -0.173182 0.258217 0.199553 0.828389 255 0 0
-0.0230789 0.0361938 -0.182617 0.145841 0.145841 0.391283 255 0 0
0.00228326 -0.0106468 -0.170654 0 0 1 255 0 0
0.0171565 -0.00561594 -0.174416 0.228887 0.279915 0.802899 255 0 0
-0.0222186 0.00450068 -0.171631 -0.14583 -0.0955795 0.914504 255 0 0
-0.0148673 0.00781749 -0.169556 0.0388529 -0.371966 0.775631 255 0 0
-0.00256602 0.00187922 -0.170654 0.0285603 -0.00178464 0.987095 255 0 0
-0.0201984 0.0221689 -0.172607 -0.00495766 0.148832 0.930303 255 0 0
-0.0349121 0.0219141 -0.17648 -0.269804 0.142129 0.887684 255 0 0
-0.0111694 -0.013874 -0.175659 -0.690839 0 0.688801 255 0 0
-0.0328006 0.0272209 -0.177659 -0.254817 0.324024 0.858468 255 0 0
-0.0132981 -0.00634511 -0.172607 -0.320718 -0.44815 0.69751 255 0 0
-0.0302793 0.0326867 -0.180814 -0.247339 0.616192 0.712274 255 0 0
-0.00344086 -0.00275176 -0.169556 0.2598 -0.0887374 0.700896 255 0 0
-0.0125971 0.0291748 -0.179497 0.203664 0.316755 0.818362 255 0 0
-0.00176048 0.0180156 -0.177612 0.391106 0.39141 0.705188 255 0 0
0.0160065 -0.00933838 -0.172607 0.603095 0.599349 0.526362 255 0 0
-0.0103681 0.00460398 -0.170654 -0.118962 0.0512872 0.939916 255 0 0
-0.0251878 0.024498 -0.173699 -0.0925341 0.281219 0.878774 255 0 0
-0.00551284 -0.0135189 -0.172607 -0.224936 -0.189642 0.846223 255 0 0
-0.0049045 0.00461197 -0.170654 0.0569864 0.0569004 0.954648 255 0 0
-0.0351857 0.0269944 -0.178467 -0.419924 0.346223 0.787573 255 0 0
-0.00524033 -0.00312302 -0.170654 -0.121058 -0.160074 0.843971 255 0 0
0.00995905 -0.0054742 -0.171631 0.0573217 0.0375506 0.964734 255 0 0
-0.0042483 0.00230577 -0.170654 0.313872 0.171811 0.805502 255 0 0
-0.0275523 0.00438811 -0.173942 -0.292514 -0.154865 0.844349 255 0 0
-0.0358887 0.030014 -0.180664 -0.387854 0.359845 0.837431 255 0 0
0.0072452 0.0135662 -0.181362 0.385598 0.30008 0.76913 255 0 0
-0.0124786 -0.0079854 -0.172866 -0.194659 -0.253508 0.847412 255 0 0
-0.0277009 0.0342962 -0.181463 -0.048199 0.430003 0.817321 255 0 0
0.0174396 -0.000454591 -0.178429 0.420921 0.448098 0.676344 255 0 0
-0.00192375 -0.0220306 -0.174561 -0.255903 -0.392413 0.758573 255 0 0
0.00207402 -0.0208224 -0.172607 -0.135707 -0.135617 0.897467 255 0 0
-0.000142529 0.00949987 -0.173193 0.243748 0.288072 0.797939 255 0 0
-0.0125334 0.0220734 -0.173891 0.206324 0.329187 0.808678 255 0 0
0.00490979 -0.0154978 -0.170654 0 0 1 255 0 0
-0.0320511 0.0311279 -0.179688 -0.11584 0.692849 0.658854 255 0 0
-0.0169281 -0.00213356 -0.171631 -0.250802 -0.385707 0.768988 255 0 0
-0.00977144 0.00164802 -0.169556 -0.235796 0.154964 0.857382 255 0 0
-0.00506712 -0.0178589 -0.174142 -0.263526 -0.252297 0.807899 255 0 0
-0.0251479 0.00196756 -0.173643 -0.21394 -0.275168 0.82401 255 0 0
0.0101095 0.00981316 -0.180814 0.406017 0.456768 0.679508 255 0 0
-0.0175171 0.032437 -0.181075 0.29115 0.646514 0.682724 255 0 0
-0.0191803 -0.00976944 -0.176636 0 0 1 255 0 0
-0.00775948 0.00399704 -0.169556 0.0339971 0.196991 0.884589 255 0 0
-0.0164032 0.00809479 -0.169556 -0.399308 -0.8024 0.443517 255 0 0
-0.00014261 -0.0155858 -0.171604 -0.0495412 -0.0493775 0.961965 255 0 0
-0.0399475 0.0212403 -0.180664 0 0 0 255 0 0
0.0162354 0.00346756 -0.179688 0.579013 0.580741 0.572262 255 0 0
0.00961228 0.00176935 -0.174235 0.259914 0.260168 0.795688 255 0 0
-0.0196632 -0.0049968 -0.174504 -0.272042 -0.33501 0.766775 255 0 0
-0.013565 0.0329285 -0.182617 0 0 0 255 0 0
-0.0348885 0.0317993 -0.180975 -0.194032 0.380034 0.815052 255 0 0
-0.00824737 -0.0207634 -0.177612 -0.295621 -0.297549 0.520846 255 0 0
-0.0196741 0.0301319 -0.177612 0.177799 0.479446 0.770102 255 0 0
-0.0221608 -0.00737593 -0.176636 0 0 1 255 0 0
-0.0301874 0.0294861 -0.177925 -0.254639 0.519106 0.755931 255 0 0
-0.0239258 -0.00200653 -0.174561 -0.600666 -0.596981 0.531802 255 0 0
-0.00256602 -0.00802013 -0.170654 0 0 1 255 0 0
-0.00701141 0.0200302 -0.175659 0.303267 0.303815 0.756086 255 0 0
-0.00617981 -0.0190735 -0.175659 -0.596734 -0.602259 0.530276 255 0 0
-0.00614166 0.0182648 -0.174561 0.609318 0.61496 0.500556 255 0 0
-0.037262 0.0248282 -0.178912 -0.483626 0.33753 0.752573 255 0 0
0.0111008 -0.00464058 -0.172607 0.671033 0.337316 0.641136 255 0 0
-0.00757217 -0.00213094 -0.169556 0.0517643 -0.50379 0.703588 255 0 0
-0.0174816 0.0245431 -0.173848 0.132639 0.361594 0.823936 255 0 0
-0.0102425 0.00955582 -0.170654 0 0 1 255 0 0
-0.0276245 0.035553 -0.182617 0 0.695961 0.715397 255 0 0
-0.00980742 -0.000359032 -0.169556 -0.187006 -0.136481 0.867735 255 0 0
-0.0400543 0.0290566 -0.182617 -0.606459 0.392826 0.637367 255 0 0
-0.0343628 0.0336304 -0.181641 0.641413 0.641413 0.420927 255 0 0
-0.0151787 0.0183563 -0.171631 -0.055947 0.6241 0.619798 255 0 0
-0.0392265 0.0251713 -0.180786 -0.183138 0.0944067 0.665365 255 0 0
-0.0073437 0.0147991 -0.172642 0.1549 0.202939 0.864988 255 0 0
-0.0186615 -0.00659561 -0.175659 -0.60114 -0.597453 0.530736 255 0 0
-0.0249379 0.016927 -0.171631 -0.00886311 0.00886311 0.997011 255 0 0
0.0189026 -0.00762253 -0.174366 0.243563 0.24318 0.603294 255 0 0
-0.0257707 -0.00107231 -0.175659 -0.288737 -0.227983 0.799628 255 0 0
-0.0251864 0.0276841 -0.175659 -0.0892896 0.373942 0.833077 255 0 0
0.00498344 -0.00770222 -0.170654 0 0 1 255 0 0
-0.0129803 -0.0154446 -0.177612 -0.22792 -0.0871536 0.887247 255 0 0
-0.00253724 -0.0202604 -0.173969 -0.280205 -0.288128 0.790947 255 0 0
-0.00434939 -0.0196533 -0.174561 -0.395308 -0.348366 0.725376 255 0 0
-0.0126686 0.00187922 -0.170654 0 0 1 255 0 0
0.0157699 0.000203291 -0.177612 0.533855 0.531972 0.629354 255 0 0
0.0058136 0.0104421 -0.177612 0.584639 0.58641 0.560643 255 0 0
-0.0175301 -0.000468893 -0.171542 -0.127445 -0.147842 0.896943 255 0 0
0.00753657 -0.0179214 -0.170654 0 0 1 255 0 0
-0.0148979 0.0116184 -0.169556 -0.0595299 0.207625 0.8531 255 0 0
-0.000101002 0.018974 -0.179162 0.397953 0.226027 0.764123 255 0 0
-0.00307363 -0.0161555 -0.172607 -0.234407 -0.235267 0.822935 255 0 0
-0.00260553 -0.017982 -0.173096 -0.233414 -0.223476 0.832344 255 0 0
-0.0365295 0.0101624 -0.177612 0 0 0 255 0 0
-0.0277637 0.0273623 -0.175914 -0.221364 0.503071 0.769677 255 0 0
0.00226593 -0.0053651 -0.170654 -0.00184423 0.0294905 0.969589 255 0 0
-0.0124289 0.0272714 -0.1782 0.293508 0.555357 0.696965 255 0 0
-0.0316239 0.0216217 -0.174561 -0.367741 0.272966 0.817499 255 0 0
0.00754983 -0.0030153 -0.171575 0.115915 0.096811 0.923299 255 0 0
0.0122504 0.00651646 -0.179345 0.344296 0.430254 0.73305 255 0 0
-0.0298894 0.0365143 -0.1828 0 0.287926 0.167957 255 0 0
0.0108617 0.00539144 -0.177612 0.390827 0.390829 0.706094 255 0 0
-0.0294887 0.0242277 -0.174561 -0.404608 0.355053 0.806233 255 0 0
-0.0152302 0.0267054 -0.176107 0.284325 0.509512 0.717411 255 0 0
0.00758927 0.00970328 -0.178522 0.52692 0.521785 0.597709 255 0 0
-0.0377935 0.0174077 -0.177856 -0.739261 0 0.664105 255 0 0
0.0022849 -0.0155156 -0.170844 -0.157941 -0.120302 0.895506 255 0 0
-0.0167847 0.00962687 -0.169556 -0.317266 0.0230479 0.816708 255 0 0
0.00317688 0.0128555 -0.177612 0.51332 0.513132 0.637193 255 0 0
0.0183197 -0.00229301 -0.177612 0.511862 0.514324 0.636579 255 0 0
-0.0253754 0.035553 -0.182617 -0.0552614 0.66787 0.730374 255 0 0
-0.0176046 0.0273124 -0.175865 0.125557 0.545692 0.736078 255 0 0
0.0209605 -0.00470606 -0.177612 0.39133 0.391324 0.705044 255 0 0
-0.0200183 0.00191744 -0.171519 -0.136104 -0.113534 0.909654 255 0 0
-0.00998983 0.0271395 -0.179022 0.135618 0.399736 0.784694 255 0 0
-0.0153755 0.0127503 -0.170654 -0.149749 0.479071 0.69941 255 0 0
0.0114441 -0.00603612 -0.171631 0.748815 0.127331 0.620837 255 0 0
-0.0270604 0.0262407 -0.174561 -0.192405 0.512966 0.75369 255 0 0
-0.0299846 0.034014 -0.181571 -0.215938 0.359584 0.851178 255 0 0
-0.0342041 0.0344116 -0.182617 0.193481 0.269313 0.816691 255 0 0
-0.0377233 0.0193598 -0.178014 -0.170806 0.0583116 0.559796 255 0 0
-0.0148621 0.0329285 -0.182617 0.0921032 0.65159 0.72729 255 0 0
0.0140101 0.00103887 -0.176636 0.39123 0.392711 0.703685 255 0 0
0.010601 0.00269636 -0.175659 0.40387 0.403719 0.676938 255 0 0
-0.023234 -0.00372738 -0.175659 -0.293763 -0.294614 0.782429 255 0 0
-0.0265656 0.014492 -0.171631 -0.356401 0 0.850682 255 0 0
0.0103141 -0.0027694 -0.172607 0.141839 0.167948 0.880305 255 0 0
-0.0199432 0.0168305 -0.170654 0 0 1 255 0 0
-0.0119438 -0.0151665 -0.176636 -0.392705 -0.20532 0.780102 255 0 0
-0.024762 0.030365 -0.177612 0.0545302 0.7458 0.644703 255 0 0
-0.0223842 0.00956176 -0.170763 -0.166962 -0.0799723 0.907228 255 0 0
0.00228479 -0.000545572 -0.170735 0.0885592 0.0695518 0.93859 255 0 0
-0.0126292 0.0302989 -0.180664 0.342369 0.649643 0.587716 255 0 0
-0.0371094 0.0269012 -0.179688 -0.517024 0.279265 0.767228 255 0 0
-0.0365448 0.0170059 -0.176636 -0.29237 0.0678927 0.881745 255 0 0
-0.033844 0.0147476 -0.174561 -0.688165 0.0330085 0.64617 255 0 0
-0.0396912 0.0175049 -0.179688 -0.121209 0 0.759086 255 0 0
-0.00469759 -0.00115204 -0.170654 -0.0302698 -0.06888 0.657495 255 0 0
-0.0151513 -0.005551 -0.172796 -0.240737 -0.228193 0.829244 255 0 0
-0.0133286 0.0262429 -0.176636 0.32248 0.561098 0.685347 255 0 0
-0.0184327 0.0207977 -0.171631 0.303621 0.665555 0.60115 255 0 0
-0.0326835 0.0244616 -0.176301 -0.314817 0.273499 0.852997 255 0 0
-0.027533 0.029081 -0.176636 -0.209423 0.314961 0.864594 255 0 0
-0.0226642 0.0221011 -0.172607 -0.0356843 0.176615 0.924583 255 0 0
-0.0325721 0.014374 -0.174498 -0.230889 -0.0311284 0.898062 255 0 0
-0.0161591 -0.0103378 -0.175659 -0.636213 -0.630376 0.444814 255 0 0
-0.0228443 0.0345383 -0.181214 -0.0567424 0.546586 0.701286 255 0 0
-0.040863 0.0278412 -0.182617 -0.464565 0.251405 0.767032 255 0 0
0.00477568 0.0043664 -0.173014 0.236491 0.217914 0.824881 255 0 0
-0.0278091 0.0014143 -0.175659 -0.291248 -0.288863 0.527929 255 0 0
-0.0320079 0.0262833 -0.176636 -0.388747 0.387301 0.825788 255 0 0
0.0101197 0.00716242 -0.178408 0.443468 0.499081 0.655941 255 0 0
0.0125403 0.00453192 -0.178215 0.418325 0.332835 0.72245 255 0 0
0.00348663 0.0154724 -0.180664 0.36865 0.742282 0.559566 255 0 0
-0.0224457 0.030365 -0.177612 0 0.695548 0.718476 255 0 0
-0.00273308 0.0142957 -0.174298 0.3171 0.290689 0.770721 255 0 0
0.00287247 -0.00636673 -0.169556 0 0 1 255 0 0
-0.0326381 0.0294268 -0.178681 -0.264491 0.495848 0.776521 255 0 0
-0.0150046 0.0293304 -0.17879 0.202205 0.639129 0.688165 255 0 0
-0.0192414 0.0360717 -0.183167 0.625831 0.648182 0.418575 255 0 0
-0.03051 0.0351766 -0.182617 -0.130476 0.553825 0.709535 255 0 0
-0.0250128 0.0342261 -0.181172 -0.0582589 0.645067 0.741822 255 0 0
-0.0173638 0.0344159 -0.18276 0.153425 0.388845 0.795345 255 0 0
0.000238691 -0.017518 -0.171631 -0.174537 -0.239673 0.845557 255 0 0
0.00794547 -0.000308662 -0.172607 0.243897 0.193231 0.829925 255 0 0
0.00145722 0.0135905 -0.176636 0.365388 0.364172 0.751263 255 0 0
-0.00259647 0.00434968 -0.170918 0.164164 0.164125 0.868145 255 0 0
0.00674493 0.0116032 -0.179531 0.665082 0.530293 0.488035 255 0 0
-0.0201928 0.0338925 -0.181296 0.245509 0.57783 0.700508 255 0 0
-0.0317688 0.0336304 -0.181641 -0.151395 0.608305 0.740946 255 0 0
0.012302 0.00187097 -0.176166 0.413143 0.413267 0.694313 255 0 0
-0.0326575 0.0323572 -0.181094 -0.100212 0.586005 0.760063 255 0 0
-0.0283966 0.03302 -0.180664 -0.197893 0.540575 0.778439 255 0 0
-0.0278091 0.0314057 -0.178528 -0.283894 0.625796 0.612652 255 0 0
-0.0247 0.0318547 -0.178795 0.0610872 0.674762 0.688777 255 0 0
-0.0225622 0.0317861 -0.17852 -0.098574 0.597215 0.729247 255 0 0
-0.0201959 0.0316962 -0.178789 0.264768 0.674473 0.637411 255 0 0
-0.0194321 0.0330658 -0.180908 0.3669 0.719251 0.564917 255 0 0
-0.0300725 0.0268549 -0.176375 -0.292168 0.385989 0.826036 255 0 0
-0.0382148 0.0272607 -0.180664 -0.582268 0.250589 0.733541 255 0 0
0.0115001 0.00354958 -0.176636 0.391053 0.393131 0.703428 255 0 0
-0.0180206 0.031328 -0.179444 0.402468 0.673794 0.596123 255 0 0
-0.0371229 0.031328 -0.181641 -0.169805 0.0846011 0.812236 255 0 0
-0.0131921 0.0313398 -0.181207 0.047625 0.53561 0.58945 255 0 0
-0.0310822 0.027832 -0.177612 -0.4713 0.454467 0.755868 255 0 0
-0.0200313 0.0276841 -0.175659 0.07526 0.484721 0.779357 255 0 0
0.0215352 -0.0059344 -0.176636 0.170695 0.167592 0.565469 255 0 0
-0.0281263 0.0301208 -0.177612 -0.384268 0.543531 0.722939 255 0 0
-0.0174209 0.0298794 -0.17835 0.279827 0.647207 0.646565 255 0 0
-0.0376421 0.0296277 -0.181241 -0.399252 0.283117 0.796057 255 0 0
-0.0227083 0.0291023 -0.176392 0 0.523472 0.787092 255 0 0
-0.0105209 0.0288448 -0.179688 0.10694 0.110901 0.944597 255 0 0
-0.013401 0.00809479 -0.169556 0.288903 -0.702074 0.570423 255 0 0
0.00228326 -0.00296942 -0.170654 0 0 1 255 0 0
-0.0393066 0.0288963 -0.181641 -0.418024 0.213485 0.404421 255 0 0
-0.0294342 0.0285187 -0.176636 -0.233868 0.578682 0.735613 255 0 0
-0.00999897 0.0252736 -0.177612 0.264453 0.53802 0.722483 255 0 0
-0.005171 0.0220441 -0.178112 0.253698 0.517992 0.57699 255 0 0
-0.0199738 0.0208544 -0.171631 -0.00578886 0.646126 0.729033 255 0 0
-0.0145588 0.027729 -0.177612 0.323735 0.646651 0.674299 255 0 0
-0.0344778 0.0119922 -0.176035 -0.320457 -0.0251525 0.701679 255 0 0
-0.0397922 0.0269248 -0.181552 -0.356999 0.206273 0.842873 255 0 0
-0.0249024 0.0265108 -0.174561 -0.0512608 0.40394 0.82379 255 0 0
-0.0224813 0.026535 -0.174561 -0.0175697 0.422026 0.819181 255 0 0
-0.0200572 0.0265108 -0.174561 0.0575105 0.289035 0.864305 255 0 0
-0.0178776 0.0262775 -0.174561 0.133563 0.455751 0.75962 255 0 0
-0.00361967 -0.0248642 -0.177612 -0.480097 -0.319183 0.70466 255 0 0
-0.00753675 -0.0153704 -0.174003 -0.191785 -0.267016 0.835004 255 0 0
-0.0150057 0.00950114 -0.169556 0 0 1 255 0 0
-0.00853856 0.0261612 -0.178589 0.139542 0.306436 0.851196 255 0 0
-0.0275329 0.0246208 -0.174058 -0.169666 0.297991 0.867909 255 0 0
-0.0227487 0.0245179 -0.173503 -0.0416994 0.366057 0.833474 255 0 0
-0.0201096 0.0245454 -0.173513 0.018561 0.431564 0.803943 255 0 0
-0.0151588 0.0243683 -0.174308 0.204426 0.379801 0.792036 255 0 0
-0.0353824 0.0248482 -0.177745 -0.446681 0.322233 0.803488 255 0 0
-0.0305878 0.024884 -0.175659 -0.330285 0.378025 0.819473 255 0 0
-0.0143948 0.0253334 -0.175659 0.240324 0.54982 0.685156 255 0 0
-0.0124004 0.0247902 -0.175914 0.282145 0.512109 0.718876 255 0 0
-0.00499799 0.0071462 -0.170953 0.207623 0.149905 0.867024 255 0 0
0.017489 -0.00990096 -0.172607 0.151403 0.122638 0.886244 255 0 0
-0.010377 0.0240763 -0.176325 0.305349 0.451094 0.734912 255 0 0
-0.00766842 0.0245573 -0.177913 0.280263 0.316054 0.784853 255 0 0
-0.00774231 0.0218654 -0.176245 0.309205 0.352207 0.758557 255 0 0
-0.00972437 -0.00760213 -0.171631 -0.147117 -0.207674 0.872963 255 0 0
-0.00607427 0.0211181 -0.176636 0.390892 0.393302 0.703392 255 0 0
-0.0300242 0.00933279 -0.17391 -0.358101 -0.0620411 0.845654 255 0 0
-0.0131236 0.0238934 -0.174561 0.210022 0.344405 0.782604 255 0 0
-0.00568667 0.0240784 -0.179288 0.41911 0.0608755 0.49521 255 0 0
-0.00858053 0.0236358 -0.176636 0.318937 0.444293 0.703368 255 0 0
-0.039093 0.0238953 -0.179688 0 0 0 255 0 0
-0.0276676 0.022032 -0.173367 -0.2144 0.157314 0.882286 255 0 0
-0.0250982 0.0219472 -0.172688 -0.088892 0.228433 0.89917 255 0 0
-0.0176409 0.0220315 -0.172663 0.0714044 0.138514 0.930193 255 0 0
-0.0150828 0.0219745 -0.173107 0.135648 0.241912 0.863937 255 0 0
-0.0126864 0.0144299 -0.170898 0.123793 0.180112 0.885062 255 0 0
-0.0369924 0.0219625 -0.177775 -0.166451 0.314536 0.314295 255 0 0
-0.0359192 0.0232086 -0.177612 -0.273394 0 0.918635 255 0 0
-0.0103667 0.0216793 -0.174507 0.261149 0.320536 0.770192 255 0 0
-0.00700607 0.0230377 -0.177612 0.362114 0.434272 0.733397 255 0 0
-0.0124925 -0.010434 -0.17372 -0.163979 -0.239891 0.856797 255 0 0
-0.0115255 0.0179138 -0.172607 0.402194 0.399704 0.68393 255 0 0
-0.0363464 0.0213928 -0.176636 0 0.871576 0.490261 255 0 0
-0.0222962 0.0207977 -0.171631 -0.0967522 0.675844 0.697822 255 0 0
-0.0293915 0.00280724 -0.175659 0 0 1 255 0 0
0.0146227 0.00429553 -0.179531 0.232218 0.200076 0.836891 255 0 0
0.0216217 -0.00488091 -0.177612 0.246246 0.560984 0.616283 255 0 0
0.00912857 0.00619952 -0.176636 0.306522 0.416811 0.736279 255 0 0
-0.039093 0.0213318 -0.179688 0 0 0 255 0 0
-0.0323648 0.0194364 -0.174561 -0.292636 0.114079 0.8704 255 0 0
-0.0300792 0.0195437 -0.173584 -0.287176 0.15837 0.87256 255 0 0
-0.0275582 0.0194965 -0.172716 -0.204677 0.142563 0.910382 255 0 0
-0.0258724 0.0200391 -0.172607 -0.397973 0.296958 0.813441 255 0 0
-0.0247487 0.0192355 -0.171631 -0.154741 0.150222 0.90892 255 0 0
-0.0225431 0.0193531 -0.171602 -0.0734774 0.0871303 0.954838 255 0 0
-0.0200855 0.0193611 -0.171344 0.0422799 0.22022 0.884611 255 0 0
-0.0179 0.0191461 -0.171631 0.197796 0.16417 0.862932 255 0 0
-0.0171051 0.0199068 -0.172607 0.243585 0.189914 0.823374 255 0 0
-0.015089 0.0195614 -0.172607 -0.00371356 0.129897 0.939237 255 0 0
-0.0100221 0.0196177 -0.173747 0.224494 0.242081 0.823811 255 0 0
-0.00780789 0.0192127 -0.174439 0.304214 0.332493 0.750534 255 0 0
-0.0346696 0.0196453 -0.175916 -0.21722 0.0812943 0.847187 255 0 0
-0.00520515 0.0194178 -0.176209 0.298161 0.318052 0.766519 255 0 0
-0.0042839 0.0205384 -0.177612 0.39061 0.391505 0.70561 255 0 0
-0.0026095 0.0194841 -0.177739 0.294595 0.265063 0.802516 255 0 0
-0.0396485 0.0192108 -0.179688 -0.259052 0.0283105 0.69882 255 0 0
-0.0199513 0.00445466 -0.171045 -0.218293 -0.0735624 0.895019 255 0 0
0.00435066 0.0161438 -0.18099 0.17546 0.596214 0.670627 255 0 0
0.0186768 -0.00634956 -0.174561 0.65376 0.192229 0.673512 255 0 0
0.00925098 0.0114413 -0.181552 0.274879 0.342976 0.766546 255 0 0
-0.00353622 0.0188019 -0.176636 0.386252 0.251216 0.767838 255 0 0
0.00200904 0.0188904 -0.180664 0.276018 0.0598605 0.846766 255 0 0
-0.0195008 0.000213429 -0.171631 -0.229769 -0.315313 0.800243 255 0 0
-0.0135574 0.0183563 -0.171631 0.190978 0.740353 0.610161 255 0 0
-0.0301081 0.0170924 -0.173231 -0.291812 0.0538043 0.880077 255 0 0
-0.0278684 0.0170916 -0.172607 -0.167411 0.0304341 0.928988 255 0 0
-0.0224587 0.0168197 -0.171142 -0.235312 -0.0357989 0.889929 255 0 0
-0.0175463 0.0168008 -0.170941 0.130314 0.213399 0.862011 255 0 0
-0.0151626 0.0169067 -0.171414 0.0743852 0.317369 0.847293 255 0 0
-0.0127727 0.016898 -0.171631 0.0556867 0.114609 0.93652 255 0 0
-0.00981649 0.0171997 -0.172802 0.201685 0.224542 0.835576 255 0 0
-0.00759679 0.0170237 -0.173466 0.235272 0.253906 0.821646 255 0 0
-0.0142441 -0.0140343 -0.177612 0 0 1 255 0 0
-0.0326149 0.0168331 -0.174426 -0.384263 0.0434 0.837716 255 0 0
-0.00522296 0.0167077 -0.174398 0.259761 0.343658 0.771221 255 0 0
-0.00456476 0.0176868 -0.175659 0.313092 0.398319 0.724429 255 0 0
-0.00264877 0.0169576 -0.176147 0.322418 0.388738 0.734335 255 0 0
-2.29053e-05 0.017114 -0.178279 0.53359 0.368453 0.652771 255 0 0
0.00133991 0.0183563 -0.179688 0.75273 0.375945 0.540428 255 0 0
0.00236503 -0.0230583 -0.173182 -0.248696 -0.257939 0.828848 255 0 0
-0.0101149 0.0120409 -0.170898 0.120317 0.112511 0.907108 255 0 0
-0.0405884 0.0180359 -0.180664 -0.836048 0 0.548656 255 0 0
0.00274468 0.0171708 -0.180749 0.303109 0.0921707 0.827094 255 0 0
-0.0009135 0.0162379 -0.176636 0.391659 0.392068 0.703902 255 0 0
-0.022644 -0.000505407 -0.173676 -0.258169 -0.238239 0.818392 255 0 0
0.012229 -0.000667673 -0.174298 0.283201 0.33533 0.761393 255 0 0
-0.00352287 0.0159149 -0.174561 0.407125 0.40901 0.667106 255 0 0
-0.0249379 0.0144921 -0.171631 0 0 1 255 0 0
-0.0125577 0.0121189 -0.170654 0.119452 0.0817777 0.921107 255 0 0
0.0221924 -0.00326668 -0.179424 0.243513 0.424176 0.731838 255 0 0
-0.0301183 0.0146361 -0.173285 -0.299261 -0.0612865 0.867613 255 0 0
-0.0279465 0.0145772 -0.172607 -0.176738 0 0.926815 255 0 0
-0.0224313 0.014448 -0.171115 -0.258625 0.0702261 0.887996 255 0 0
-0.0199432 0.0144081 -0.170654 0 0 1 255 0 0
-0.010178 0.0144162 -0.171531 0.133335 0.15028 0.894384 255 0 0
-0.00906881 0.0154648 -0.172607 0.401531 0.400283 0.684031 255 0 0
-0.00511652 0.0145755 -0.173268 0.228737 0.267125 0.818921 255 0 0
-0.0345967 0.0141856 -0.175822 -0.394734 -0.0606362 0.618971 255 0 0
-0.00187937 0.0151787 -0.175659 0.305303 0.305849 0.751488 255 0 0
-0.000204585 0.0144247 -0.176113 0.41637 0.344758 0.71589 255 0 0
0.000736236 0.0152939 -0.177612 0.650158 0.385287 0.629452 255 0 0
0.00248512 0.0145575 -0.178662 0.482124 0.58109 0.599749 255 0 0
0.00464848 0.015286 -0.180664 0.0936511 0.253061 0.888612 255 0 0
-0.0177531 -0.00309611 -0.172747 -0.19607 -0.268048 0.831512 255 0 0
-0.0371971 0.013998 -0.178223 -0.393552 0 0.555744 255 0 0
-0.00801754 0.0137301 -0.171631 0.234471 0.318372 0.791642 255 0 0
0.00471485 0.013937 -0.179551 0.253612 0.378027 0.752599 255 0 0
0.00736237 0.0069452 -0.176113 0.435886 0.374613 0.716392 255 0 0
-0.00104093 0.0134353 -0.174561 0.407773 0.407539 0.668113 255 0 0
-0.0361328 0.0135269 -0.177612 0 0 0 255 0 0
-0.0300206 0.0120365 -0.173505 -0.391627 -0.0720279 0.822636 255 0 0
-0.0264994 0.0122562 -0.171631 -0.461282 -0.0710847 0.79457 255 0 0
-0.0249379 0.0120532 -0.171631 -0.0490061 0.00927558 0.979872 255 0 0
-0.022388 0.0119921 -0.17079 -0.201644 0.0824621 0.908168 255 0 0
-0.0199432 0.011982 -0.170654 0 0 1 255 0 0
-0.0175459 0.0120108 -0.170654 -0.0834912 0.0837338 0.947271 255 0 0
-0.00755382 0.0119689 -0.171446 0.107918 0.174246 0.890734 255 0 0
-0.00481 0.0124694 -0.172607 0.162999 0.220868 0.855743 255 0 0
-0.00262179 0.0120664 -0.173193 0.282522 0.25219 0.792494 255 0 0
-0.0369995 0.0121379 -0.178198 -0.604924 0 0.717413 255 0 0
-0.0322266 0.0119397 -0.174561 -0.240782 -0.0913977 0.876306 255 0 0
0.000616819 0.0126826 -0.175659 0.404252 0.403505 0.676776 255 0 0
0.00231382 0.0119133 -0.176217 0.382986 0.396244 0.706686 255 0 0
0.00495027 0.0120872 -0.178276 0.457283 0.446247 0.672426 255 0 0
0.00828552 0.0134811 -0.182617 0.659012 0.653231 0.372817 255 0 0
-0.00354258 -0.0214335 -0.175659 -0.399735 -0.397603 0.689098 255 0 0
-0.00983846 -0.0179131 -0.176503 -0.245064 -0.240588 0.835084 255 0 0
0.000134078 0.00733294 -0.172607 0.183249 0.134601 0.879033 255 0 0
-0.0360616 0.0119845 -0.177612 0 0 0.833333 255 0 0
-0.00544181 0.0114441 -0.171631 0.190539 0.24243 0.835028 255 0 0
0.00773133 0.0121604 -0.180935 0.483234 0.389557 0.698577 255 0 0
-0.015124 -0.000547846 -0.17098 -0.150173 -0.188091 0.881788 255 0 0
-0.0334473 0.0114125 -0.175659 -0.383617 -0.181626 0.783173 255 0 0
-0.0132797 0.0110687 -0.169556 0.388811 0.205537 0.709245 255 0 0
-0.0164032 0.01091 -0.169556 -0.535441 0.525338 0.661303 255 0 0
0.00144068 0.0109558 -0.174561 0.407973 0.407895 0.667434 255 0 0
0.00396729 0.0110805 -0.176636 0.487305 0.58081 0.627783 255 0 0
-0.0276296 0.00956953 -0.172713 -0.254885 -0.080226 0.878804 255 0 0
-0.0263672 0.0106277 -0.171631 -0.739518 -0.373215 0.5602 255 0 0
-0.0249089 0.00964202 -0.171631 -0.151641 -0.0438616 0.927667 255 0 0
-0.0180222 0.00945473 -0.170654 -0.230359 -0.0487936 0.871116 255 0 0
-0.013401 0.00950114 -0.169556 0.416174 0 0.777126 255 0 0
-0.0122642 0.00955582 -0.170654 0.21404 -0.0407709 0.8822 255 0 0
-0.00761913 0.00956018 -0.170724 0.0720739 0.0721193 0.942405 255 0 0
-0.00501728 0.00960858 -0.17155 0.157278 0.0940506 0.903366 255 0 0
-0.0022808 0.00987348 -0.172607 0.228586 0.21491 0.835963 255 0 0
0.00755808 -0.00540797 -0.171088 0.227178 0.109174 0.871136 255 0 0
0.0100187 -0.0105079 -0.171631 0 0.113834 0.943457 255 0 0
-0.0359192 0.0101624 -0.177612 -0.418024 0 0.274328 255 0 0
-0.0346642 0.00982665 -0.176392 -0.493335 0 0.555634 255 0 0
-0.0328147 0.00925237 -0.175659 -0.199196 -0.0736198 0.893113 255 0 0
-0.0316662 0.00976217 -0.174561 -0.298743 -0.178094 0.827688 255 0 0
-0.00319099 0.00919107 -0.171631 0.244319 0.191537 0.832288 255 0 0
0.00218178 0.00919953 -0.174235 0.279918 0.279769 0.780432 255 0 0
0.00311311 0.010184 -0.175659 0.352916 0.400735 0.713575 255 0 0
0.00485827 0.00944442 -0.17605 0.330998 0.36585 0.733652 255 0 0
0.00941239 0.00898743 -0.179468 0.421068 0.560943 0.641922 255 0 0
-0.0251109 0.00435803 -0.17277 -0.219318 -0.0949808 0.883133 255 0 0
0.00392151 0.00847117 -0.174561 0.40823 0.40667 0.66861 255 0 0
0.0118548 0.00885264 -0.18099 0 0.570907 0.500693 255 0 0
-0.0275982 0.00697317 -0.173193 -0.202143 -0.137604 0.880676 255 0 0
-0.0255017 0.00675049 -0.172607 -0.202272 -0.112816 0.893998 255 0 0
-0.0243288 0.00735339 -0.171631 -0.264905 -0.149436 0.856757 255 0 0
-0.0224718 0.00696155 -0.171422 -0.133338 -0.102032 0.91335 255 0 0
-0.0199955 0.0070611 -0.170731 -0.0666402 -0.0565589 0.95211 255 0 0
-0.0175459 0.00710405 -0.170654 -0.0266066 -0.0359535 0.976788 255 0 0
-0.012621 0.00707357 -0.170654 0.0648163 -0.0645575 0.951514 255 0 0
-0.0102425 0.00713285 -0.170654 0 0 1 255 0 0
-0.00761631 0.00713285 -0.170654 0 0 1 255 0 0
-0.00255666 0.00700081 -0.171631 0.0658957 0.065857 0.952584 255 0 0
-0.0342611 0.00784175 -0.175985 0 0 0.666667 255 0 0
-0.0325343 0.00711616 -0.175659 -0.0821609 -0.0379567 0.911198 255 0 0
-0.0313721 0.00771332 -0.174561 -0.641452 0.0682205 0.608696 255 0 0
-0.0299358 0.00699155 -0.174195 -0.338593 -0.147623 0.824164 255 0 0
-0.0151722 0.00672033 -0.170654 -0.0203684 -0.203157 0.880995 255 0 0
0.00231822 0.00683011 -0.173123 0.230802 0.249429 0.82161 255 0 0
0.00560888 0.00768789 -0.175659 0.269018 0.334088 0.748387 255 0 0
0.00837136 0.00774193 -0.177612 0.58168 0.511485 0.611736 255 0 0
0.0125595 0.00768127 -0.180664 0.264206 0.263014 0.544958 255 0 0
-0.000694214 0.00633267 -0.171631 0.226619 0.177864 0.844439 255 0 0
-0.00738144 -0.0200134 -0.176571 -0.209605 -0.211727 0.86003 255 0 0
-0.0134872 -0.0140763 -0.177612 -0.221127 -0.319997 0.799876 255 0 0
0.00637055 0.00616264 -0.174561 0.45945 0.382649 0.682399 255 0 0
0.0138219 0.00616201 -0.179688 0 0 1 255 0 0
-0.0175171 0.0045057 -0.170654 0 0 1 255 0 0
-0.0150935 0.0045057 -0.170654 0 0 1 255 0 0
-0.0126686 0.0045057 -0.170654 0 0 1 255 0 0
-0.007319 0.00527131 -0.170654 0.0900341 0.282508 0.831496 255 0 0
0.00986303 0.00444202 -0.176082 0.382493 0.329145 0.732038 255 0 0
-0.0315552 0.00547028 -0.175659 0 0 0 255 0 0
-0.029892 0.00387637 -0.175659 -0.161274 -0.106678 0.734949 255 0 0
-0.0294838 0.00505956 -0.174561 -0.141892 -0.142992 0.896986 255 0 0
-0.000171385 0.00429916 -0.171603 0.0798395 0.129587 0.919861 255 0 0
0.000878811 0.00537491 -0.172607 0.385513 0.769788 0.508729 255 0 0
0.00260533 0.00485336 -0.172607 0.15403 0.208092 0.866701 255 0 0
0.0081056 0.00519308 -0.175659 0.353394 0.400918 0.713058 255 0 0
0.0138499 -0.00145467 -0.174561 0.407056 0.408225 0.66815 255 0 0
0.00200293 0.00383186 -0.171631 0.159439 0.218538 0.852499 255 0 0
-0.00925903 0.00375633 -0.169556 -0.654973 0.184132 0.667922 255 0 0
0.0124588 -0.0105079 -0.171631 0.00717533 0.014486 0.993671 255 0 0
0.00888316 0.00350825 -0.174561 0.406408 0.408278 0.668871 255 0 0
0.0167542 0.00370026 -0.180664 0.306871 0.307444 0.747421 255 0 0
-0.0271988 0.00243676 -0.174317 -0.290806 -0.289709 0.777442 255 0 0
-0.0215668 0.00241871 -0.171631 -0.52181 -0.249148 0.717293 255 0 0
-0.0175319 0.00188013 -0.17079 -0.128707 -0.129204 0.909896 255 0 0
-0.0150935 0.00187922 -0.170654 0 0 1 255 0 0
-0.0108221 0.00218906 -0.170654 -0.35647 0.200804 0.793485 255 0 0
-0.00757217 0.00186801 -0.169556 0 0 1 255 0 0
-0.00536347 0.00175847 -0.169556 0.160208 0.087251 0.893305 255 0 0
0.00726711 0.00193697 -0.173082 0.298305 0.251407 0.792817 255 0 0
0.0132472 0.00272783 -0.177612 0.391067 0.390472 0.706216 255 0 0
0.0150181 0.00200304 -0.178408 0.474157 0.403899 0.677183 255 0 0
0.0169954 0.00178591 -0.179636 0.287577 0.255386 0.796512 255 0 0
0.0180003 0.00238188 -0.180664 0.254464 0.200325 0.835008 255 0 0
-0.00761631 -0.00539398 -0.170654 -0.00690476 -0.0138095 0.994315 255 0 0
0.0195148 0.00134765 -0.180664 0.044565 0.0445815 0.967163 255 0 0
-0.000141651 -0.000545741 -0.170654 0 0 1 255 0 0
-0.000450006 -0.0185387 -0.172607 -0.163998 -0.196693 0.876336 255 0 0
-0.0211945 0.000879288 -0.172607 -0.590401 -0.581431 0.55979 255 0 0
-0.0203629 -0.000772673 -0.172816 -0.233095 -0.256608 0.817896 255 0 0
-0.0126686 -0.000545741 -0.170654 0 0 1 255 0 0
-0.0109112 -0.000872228 -0.170654 -0.310945 -0.172832 0.809283 255 0 0
-0.00757217 -0.000542461 -0.169556 0.00917717 -0.00915538 0.996162 255 0 0
0.00493635 -0.00054811 -0.171538 0.12611 0.0702122 0.928864 255 0 0
0.0100244 -0.000570847 -0.173333 0.241137 0.260528 0.806604 255 0 0
0.0130984 0.000200987 -0.175659 0.403459 0.404259 0.676822 255 0 0
0.0148103 -0.000632176 -0.176202 0.395504 0.394835 0.696525 255 0 0
0.0193963 -0.00092032 -0.179514 0.379729 0.38169 0.71985 255 0 0
0.0204124 -0.000230044 -0.180664 0.19465 0.195701 0.862403 255 0 0
0.00703021 -0.000984336 -0.171631 0.22558 0.177111 0.846112 255 0 0
-0.0035553 -0.00101121 -0.169556 0.358423 0.234002 0.705447 255 0 0
0.0221659 -0.00129116 -0.180664 0.0486118 0.0480689 0.964319 255 0 0
-0.0186158 -0.00143814 -0.172607 -0.39097 -0.389645 0.707167 255 0 0
-5.05674e-06 -0.0228821 -0.174287 -0.317531 -0.330487 0.766794 255 0 0
0.0165151 -0.0014712 -0.176636 0.390383 0.393047 0.704222 255 0 0
-0.0245677 -0.00299808 -0.175659 -0.0883183 -0.0876766 0.855485 255 0 0
-0.0223358 -0.00286621 -0.174522 -0.227553 -0.255932 0.824712 255 0 0
-0.020064 -0.00303159 -0.173668 -0.251494 -0.289432 0.810146 255 0 0
-0.0150342 -0.00283832 -0.171631 -0.100935 -0.12304 0.916818 255 0 0
-0.0102425 -0.00296942 -0.170654 -0.0196613 -0.0394829 0.977104 255 0 0
-0.00439557 -0.00260552 -0.169556 -0.151529 -0.103925 0.774506 255 0 0
-0.00235005 -0.00301815 -0.170654 0.159041 -0.0501825 0.901304 255 0 0
-0.000141651 -0.00296942 -0.170654 0 0 1 255 0 0
0.00491833 -0.00297337 -0.17091 0.126345 0.159305 0.893226 255 0 0
0.0086441 -0.00198364 -0.172607 0.600171 0.60251 0.526096 255 0 0
0.014715 -0.00314757 -0.174373 0.316008 0.239173 0.790078 255 0 0
0.0155932 -0.00229517 -0.175659 0.405014 0.402943 0.676539 255 0 0
0.0230083 -0.00228906 -0.180664 0.231212 0.411025 0.752253 255 0 0
-0.00761623 -0.0032628 -0.170654 0.00812965 -0.172802 0.898856 255 0 0
0.00940933 -0.0035965 -0.171631 0.240858 0.240761 0.809811 255 0 0
-0.016023 -0.00375525 -0.172607 -0.294214 -0.292223 0.779361 255 0 0
-0.0204131 -0.00602581 -0.17571 -0.21199 -0.297677 0.814867 255 0 0
0.0163269 -0.00393613 -0.174561 0.407985 0.40829 0.666933 255 0 0
-0.022349 -0.00549415 -0.175948 -0.13457 -0.232493 0.873484 255 0 0
-0.0143026 -0.00454585 -0.171631 -0.392049 -0.391429 0.704175 255 0 0
-0.0126298 -0.00528791 -0.171599 -0.130332 -0.19509 0.887772 255 0 0
-0.00256602 -0.00539398 -0.170654 0.0106181 -0.010568 0.995614 255 0 0
-0.000165419 -0.00545345 -0.170654 0 0 1 255 0 0
0.00490979 -0.00539398 -0.170654 0 0 1 255 0 0
0.0126299 -0.00540404 -0.172666 0.179679 0.0857833 0.901495 255 0 0
0.0149726 -0.00554183 -0.173495 0.235497 0.234825 0.817212 255 0 0
0.0180893 -0.00478999 -0.175659 0.304807 0.306037 0.75185 255 0 0
0.0198576 -0.00560182 -0.176132 0.361133 0.281413 0.756425 255 0 0
0.0147972 -0.0129179 -0.171631 0 0 0.964286 255 0 0
-0.00256602 -0.0106468 -0.170654 -0.0164449 -0.0164707 0.987384 255 0 0
-0.000500497 -0.0252649 -0.175659 -0.332929 -0.113602 0.818009 255 0 0
-0.00495005 -0.00796089 -0.170678 -0.058968 -0.051786 0.959859 255 0 0
-0.020054 -0.00780868 -0.176274 -0.22682 -0.19901 0.803348 255 0 0
-0.0180563 -0.00830332 -0.175659 -0.2809 -0.191883 0.828271 255 0 0
-0.0169954 -0.0076158 -0.174561 -0.326315 -0.220115 0.794708 255 0 0
-0.0149761 -0.00797113 -0.173855 -0.246285 -0.246518 0.827939 255 0 0
-0.0117264 -0.0068512 -0.171631 -0.380217 -0.75688 0.531571 255 0 0
-0.00743877 -0.00784482 -0.17117 -0.14014 -0.214716 0.87056 255 0 0
-0.000141651 -0.00802013 -0.170654 0 0 1 255 0 0
0.00227833 -0.0080398 -0.170654 0.00147498 -0.0237735 0.952446 255 0 0
0.0100187 -0.00786527 -0.171631 0 0 1 255 0 0
0.0122203 -0.0082094 -0.171631 0.120886 0.151304 0.902878 255 0 0
0.012957 -0.00729869 -0.172607 0.188418 0.242292 0.826872 255 0 0
0.0174435 -0.0079882 -0.173239 0.233132 0.273528 0.805921 255 0 0
0.00247002 -0.00717163 -0.169556 0 0 1 255 0 0
-0.010569 -0.0085247 -0.172607 -0.23445 -0.235546 0.822598 255 0 0
0.0143573 -0.00874583 -0.171631 0.17995 0.492457 0.720813 255 0 0
-0.0176163 -0.0098834 -0.175903 -0.349402 -0.159175 0.79282 255 0 0
-0.00997162 -0.0103813 -0.172878 -0.164667 -0.183059 0.871205 255 0 0
-0.00505417 -0.0106167 -0.171322 -0.219485 -0.156399 0.859528 255 0 0
0.00761203 -0.0106179 -0.171348 0.2376 0.0401633 0.812239 255 0 0
0.0148742 -0.0105377 -0.171631 0.0294197 0.0292363 0.976895 255 0 0
-0.000141651 -0.0106468 -0.170654 0 0 1 255 0 0
0.00490981 -0.0107246 -0.170654 0.0239953 -0.00102141 0.990315 255 0 0
-0.0121918 -0.0121394 -0.174561 -0.0854399 -0.17088 0.908887 255 0 0
-0.0099374 -0.0128583 -0.17385 -0.299187 -0.216563 0.807248 255 0 0
-0.00751983 -0.0128473 -0.17296 -0.168597 -0.223432 0.858178 255 0 0
-0.0045065 -0.0128272 -0.171631 -0.217221 -0.177829 0.853324 255 0 0
-0.00257677 -0.013124 -0.171278 -0.137826 -0.192911 0.878937 255 0 0
-0.000142197 -0.0130846 -0.17079 -0.0718518 -0.168464 0.910971 255 0 0
0.00490979 -0.013073 -0.170654 0 0 1 255 0 0
0.00996019 -0.013073 -0.170654 0 0.132861 0.93396 255 0 0
0.0123958 -0.0130831 -0.171156 0.267716 0.0864236 0.820698 255 0 0
-0.0123948 -0.0136132 -0.176185 -0.377664 -0.455232 0.68427 255 0 0
-0.00506554 -0.0155215 -0.173096 -0.233798 -0.234284 0.824605 255 0 0
-0.00944748 -0.0148231 -0.174463 -0.286586 -0.287322 0.790743 255 0 0
-0.00224277 -0.0152508 -0.171631 -0.168002 -0.168206 0.872759 255 0 0
0.00753657 -0.0154978 -0.170654 0 0 1 255 0 0
0.00996019 -0.0154978 -0.170654 0.0491084 -0.0101834 0.982627 255 0 0
0.0119561 -0.0153367 -0.171322 0.420001 -0.170552 0.736467 255 0 0
-0.0117188 -0.0169754 -0.177612 -0.307291 -0.307291 0.747274 255 0 0
-0.00867462 -0.016571 -0.175659 -0.600077 -0.596418 0.533097 255 0 0
-0.0110458 -0.0180267 -0.177612 -0.774195 -0.337951 0.432552 255 0 0
-0.00781386 -0.0182937 -0.176008 -0.283359 -0.305873 0.785001 255 0 0
-0.0048353 -0.0246582 -0.177701 -0.142826 0 0.833547 255 0 0
0.00232408 -0.0179879 -0.171547 -0.109937 -0.117915 0.91536 255 0 0
0.00491719 -0.017952 -0.170933 -0.109053 -0.203389 0.890256 255 0 0
0.009758 -0.0177041 -0.170654 0 0 1 255 0 0
-0.00682195 -0.0224889 -0.177938 -0.245702 -0.470002 0.68427 255 0 0
-0.00947317 -0.0197805 -0.177612 -0.164235 -0.374704 0.752128 255 0 0
-0.00527231 -0.0207004 -0.176063 -0.311113 -0.400265 0.743564 255 0 0
0.00290661 -0.0198578 -0.171631 -0.23539 -0.235677 0.821462 255 0 0
0.00498924 -0.0204163 -0.171631 -0.0459565 -0.0551255 0.965432 255 0 0
0.00744972 -0.0202327 -0.171142 -0.14724 -0.24246 0.854979 255 0 0
-0.00539574 -0.023164 -0.177762 -0.328375 -0.230527 0.806141 255 0 0
-0.00273342 -0.0231984 -0.176115 -0.342056 -0.311396 0.765205 255 0 0
0.00394535 -0.0216064 -0.172607 -0.437978 -0.574488 0.664486 255 0 0
0.00438159 -0.0230912 -0.172649 -0.125457 -0.175647 0.898734 255 0 0
0.00544691 -0.0220967 -0.171631 -0.256007 -0.290888 0.804794 255 0 0
0.00656509 -0.0218964 -0.171631 0 0 1 255 0 0
-0.000908217 -0.0237884 -0.175659 -0.329459 -0.26536 0.758386 255 0 0
-0.00226777 -0.0250593 -0.176566 -0.350903 -0.127191 0.803165 255 0 0
0.000640994 -0.0250046 -0.174561 -0.349554 -0.160769 0.798093 255 0 0
0.00212427 -0.0251375 -0.174206 -0.207287 -0.189169 0.856252 255 0 0
0.00416088 -0.0245437 -0.173096 0 0 0.5 255 0 0
