solid STL generated by MeshLab
  facet normal -9.974521e-01  7.133932e-02  0.000000e+00
    outer loop
      vertex   0.000000e+00  1.660000e+01  0.000000e+00
      vertex   1.689643e-01  1.896243e+01  7.800000e+01
      vertex   1.689643e-01  1.896243e+01  0.000000e+00
    endloop
  endfacet
  facet normal -9.771469e-01  2.125652e-01  0.000000e+00
    outer loop
      vertex   1.689643e-01  1.896243e+01  0.000000e+00
      vertex   1.689643e-01  1.896243e+01  7.800000e+01
      vertex   6.724167e-01  2.127676e+01  7.800000e+01
    endloop
  endfacet
  facet normal -9.771469e-01  2.125652e-01  0.000000e+00
    outer loop
      vertex   1.689643e-01  1.896243e+01  0.000000e+00
      vertex   6.724167e-01  2.127676e+01  7.800000e+01
      vertex   6.724167e-01  2.127676e+01  0.000000e+00
    endloop
  endfacet
  facet normal -9.369499e-01  3.494638e-01  0.000000e+00
    outer loop
      vertex   6.724167e-01  2.127676e+01  0.000000e+00
      vertex   6.724167e-01  2.127676e+01  7.800000e+01
      vertex   1.500108e+00  2.349589e+01  7.800000e+01
    endloop
  endfacet
  facet normal -9.369499e-01  3.494638e-01  0.000000e+00
    outer loop
      vertex   6.724167e-01  2.127676e+01  0.000000e+00
      vertex   1.500108e+00  2.349589e+01  7.800000e+01
      vertex   1.500108e+00  2.349589e+01  0.000000e+00
    endloop
  endfacet
  facet normal -8.776789e-01  4.792491e-01  0.000000e+00
    outer loop
      vertex   1.500108e+00  2.349589e+01  0.000000e+00
      vertex   1.500108e+00  2.349589e+01  7.800000e+01
      vertex   2.635191e+00  2.557464e+01  7.800000e+01
    endloop
  endfacet
  facet normal -8.776789e-01  4.792491e-01  0.000000e+00
    outer loop
      vertex   1.500108e+00  2.349589e+01  0.000000e+00
      vertex   2.635191e+00  2.557464e+01  7.800000e+01
      vertex   2.635191e+00  2.557464e+01  0.000000e+00
    endloop
  endfacet
  facet normal -8.005412e-01  5.992777e-01  0.000000e+00
    outer loop
      vertex   2.635191e+00  2.557464e+01  0.000000e+00
      vertex   2.635191e+00  2.557464e+01  7.800000e+01
      vertex   4.054556e+00  2.747069e+01  7.800000e+01
    endloop
  endfacet
  facet normal -8.005412e-01  5.992777e-01  0.000000e+00
    outer loop
      vertex   2.635191e+00  2.557464e+01  0.000000e+00
      vertex   4.054556e+00  2.747069e+01  7.800000e+01
      vertex   4.054556e+00  2.747069e+01  0.000000e+00
    endloop
  endfacet
  facet normal -7.071068e-01  7.071066e-01  0.000000e+00
    outer loop
      vertex   4.054556e+00  2.747069e+01  0.000000e+00
      vertex   4.054556e+00  2.747069e+01  7.800000e+01
      vertex   5.729311e+00  2.914544e+01  7.800000e+01
    endloop
  endfacet
  facet normal -7.071068e-01  7.071066e-01  0.000000e+00
    outer loop
      vertex   4.054556e+00  2.747069e+01  0.000000e+00
      vertex   5.729311e+00  2.914544e+01  7.800000e+01
      vertex   5.729311e+00  2.914544e+01  0.000000e+00
    endloop
  endfacet
  facet normal -5.992774e-01  8.005415e-01  0.000000e+00
    outer loop
      vertex   5.729311e+00  2.914544e+01  0.000000e+00
      vertex   5.729311e+00  2.914544e+01  7.800000e+01
      vertex   7.625362e+00  3.056481e+01  7.800000e+01
    endloop
  endfacet
  facet normal -5.992774e-01  8.005415e-01  0.000000e+00
    outer loop
      vertex   5.729311e+00  2.914544e+01  0.000000e+00
      vertex   7.625362e+00  3.056481e+01  7.800000e+01
      vertex   7.625362e+00  3.056481e+01  0.000000e+00
    endloop
  endfacet
  facet normal -4.792494e-01  8.776788e-01  0.000000e+00
    outer loop
      vertex   7.625362e+00  3.056481e+01  0.000000e+00
      vertex   7.625362e+00  3.056481e+01  7.800000e+01
      vertex   9.704111e+00  3.169989e+01  7.800000e+01
    endloop
  endfacet
  facet normal -4.792494e-01  8.776788e-01  0.000000e+00
    outer loop
      vertex   7.625362e+00  3.056481e+01  0.000000e+00
      vertex   9.704111e+00  3.169989e+01  7.800000e+01
      vertex   9.704111e+00  3.169989e+01  0.000000e+00
    endloop
  endfacet
  facet normal -3.494643e-01  9.369497e-01  0.000000e+00
    outer loop
      vertex   9.704111e+00  3.169989e+01  0.000000e+00
      vertex   9.704111e+00  3.169989e+01  7.800000e+01
      vertex   1.192324e+01  3.252758e+01  7.800000e+01
    endloop
  endfacet
  facet normal -3.494643e-01  9.369497e-01  0.000000e+00
    outer loop
      vertex   9.704111e+00  3.169989e+01  0.000000e+00
      vertex   1.192324e+01  3.252758e+01  7.800000e+01
      vertex   1.192324e+01  3.252758e+01  0.000000e+00
    endloop
  endfacet
  facet normal -2.125651e-01  9.771469e-01  0.000000e+00
    outer loop
      vertex   1.192324e+01  3.252758e+01  0.000000e+00
      vertex   1.192324e+01  3.252758e+01  7.800000e+01
      vertex   1.423757e+01  3.303104e+01  7.800000e+01
    endloop
  endfacet
  facet normal -2.125651e-01  9.771469e-01  0.000000e+00
    outer loop
      vertex   1.192324e+01  3.252758e+01  0.000000e+00
      vertex   1.423757e+01  3.303104e+01  7.800000e+01
      vertex   1.423757e+01  3.303104e+01  0.000000e+00
    endloop
  endfacet
  facet normal -7.133930e-02  9.974521e-01  0.000000e+00
    outer loop
      vertex   1.423757e+01  3.303104e+01  0.000000e+00
      vertex   1.423757e+01  3.303104e+01  7.800000e+01
      vertex   1.660000e+01  3.320000e+01  7.800000e+01
    endloop
  endfacet
  facet normal -7.133930e-02  9.974521e-01  0.000000e+00
    outer loop
      vertex   1.423757e+01  3.303104e+01  0.000000e+00
      vertex   1.660000e+01  3.320000e+01  7.800000e+01
      vertex   1.660000e+01  3.320000e+01  0.000000e+00
    endloop
  endfacet
  facet normal  7.133937e-02  9.974521e-01 -0.000000e+00
    outer loop
      vertex   1.660000e+01  3.320000e+01  0.000000e+00
      vertex   1.660000e+01  3.320000e+01  7.800000e+01
      vertex   1.896243e+01  3.303104e+01  7.800000e+01
    endloop
  endfacet
  facet normal  7.133937e-02  9.974521e-01  0.000000e+00
    outer loop
      vertex   1.660000e+01  3.320000e+01  0.000000e+00
      vertex   1.896243e+01  3.303104e+01  7.800000e+01
      vertex   1.896243e+01  3.303104e+01  0.000000e+00
    endloop
  endfacet
  facet normal  2.125651e-01  9.771469e-01 -0.000000e+00
    outer loop
      vertex   1.896243e+01  3.303104e+01  0.000000e+00
      vertex   1.896243e+01  3.303104e+01  7.800000e+01
      vertex   2.127676e+01  3.252758e+01  7.800000e+01
    endloop
  endfacet
  facet normal  2.125651e-01  9.771469e-01  0.000000e+00
    outer loop
      vertex   1.896243e+01  3.303104e+01  0.000000e+00
      vertex   2.127676e+01  3.252758e+01  7.800000e+01
      vertex   2.127676e+01  3.252758e+01  0.000000e+00
    endloop
  endfacet
  facet normal  3.494640e-01  9.369497e-01 -0.000000e+00
    outer loop
      vertex   2.127676e+01  3.252758e+01  0.000000e+00
      vertex   2.127676e+01  3.252758e+01  7.800000e+01
      vertex   2.349589e+01  3.169989e+01  7.800000e+01
    endloop
  endfacet
  facet normal  3.494640e-01  9.369497e-01  0.000000e+00
    outer loop
      vertex   2.127676e+01  3.252758e+01  0.000000e+00
      vertex   2.349589e+01  3.169989e+01  7.800000e+01
      vertex   2.349589e+01  3.169989e+01  0.000000e+00
    endloop
  endfacet
  facet normal  4.792494e-01  8.776787e-01 -0.000000e+00
    outer loop
      vertex   2.349589e+01  3.169989e+01  0.000000e+00
      vertex   2.349589e+01  3.169989e+01  7.800000e+01
      vertex   2.557464e+01  3.056481e+01  7.800000e+01
    endloop
  endfacet
  facet normal  4.792494e-01  8.776787e-01  0.000000e+00
    outer loop
      vertex   2.349589e+01  3.169989e+01  0.000000e+00
      vertex   2.557464e+01  3.056481e+01  7.800000e+01
      vertex   2.557464e+01  3.056481e+01  0.000000e+00
    endloop
  endfacet
  facet normal  5.992777e-01  8.005413e-01 -0.000000e+00
    outer loop
      vertex   2.557464e+01  3.056481e+01  0.000000e+00
      vertex   2.557464e+01  3.056481e+01  7.800000e+01
      vertex   2.747069e+01  2.914544e+01  7.800000e+01
    endloop
  endfacet
  facet normal  5.992777e-01  8.005413e-01  0.000000e+00
    outer loop
      vertex   2.557464e+01  3.056481e+01  0.000000e+00
      vertex   2.747069e+01  2.914544e+01  7.800000e+01
      vertex   2.747069e+01  2.914544e+01  0.000000e+00
    endloop
  endfacet
  facet normal  7.071068e-01  7.071068e-01 -0.000000e+00
    outer loop
      vertex   2.747069e+01  2.914544e+01  0.000000e+00
      vertex   2.747069e+01  2.914544e+01  7.800000e+01
      vertex   2.914544e+01  2.747069e+01  7.800000e+01
    endloop
  endfacet
  facet normal  7.071068e-01  7.071068e-01  0.000000e+00
    outer loop
      vertex   2.747069e+01  2.914544e+01  0.000000e+00
      vertex   2.914544e+01  2.747069e+01  7.800000e+01
      vertex   2.914544e+01  2.747069e+01  0.000000e+00
    endloop
  endfacet
  facet normal  8.005413e-01  5.992777e-01 -0.000000e+00
    outer loop
      vertex   2.914544e+01  2.747069e+01  0.000000e+00
      vertex   2.914544e+01  2.747069e+01  7.800000e+01
      vertex   3.056481e+01  2.557464e+01  7.800000e+01
    endloop
  endfacet
  facet normal  8.005413e-01  5.992777e-01  0.000000e+00
    outer loop
      vertex   2.914544e+01  2.747069e+01  0.000000e+00
      vertex   3.056481e+01  2.557464e+01  7.800000e+01
      vertex   3.056481e+01  2.557464e+01  0.000000e+00
    endloop
  endfacet
  facet normal  8.776787e-01  4.792494e-01 -0.000000e+00
    outer loop
      vertex   3.056481e+01  2.557464e+01  0.000000e+00
      vertex   3.056481e+01  2.557464e+01  7.800000e+01
      vertex   3.169989e+01  2.349589e+01  7.800000e+01
    endloop
  endfacet
  facet normal  8.776787e-01  4.792494e-01  0.000000e+00
    outer loop
      vertex   3.056481e+01  2.557464e+01  0.000000e+00
      vertex   3.169989e+01  2.349589e+01  7.800000e+01
      vertex   3.169989e+01  2.349589e+01  0.000000e+00
    endloop
  endfacet
  facet normal  9.369497e-01  3.494640e-01 -0.000000e+00
    outer loop
      vertex   3.169989e+01  2.349589e+01  0.000000e+00
      vertex   3.169989e+01  2.349589e+01  7.800000e+01
      vertex   3.252758e+01  2.127676e+01  7.800000e+01
    endloop
  endfacet
  facet normal  9.369497e-01  3.494640e-01  0.000000e+00
    outer loop
      vertex   3.169989e+01  2.349589e+01  0.000000e+00
      vertex   3.252758e+01  2.127676e+01  7.800000e+01
      vertex   3.252758e+01  2.127676e+01  0.000000e+00
    endloop
  endfacet
  facet normal  9.771469e-01  2.125651e-01 -0.000000e+00
    outer loop
      vertex   3.252758e+01  2.127676e+01  0.000000e+00
      vertex   3.252758e+01  2.127676e+01  7.800000e+01
      vertex   3.303104e+01  1.896243e+01  7.800000e+01
    endloop
  endfacet
  facet normal  9.771469e-01  2.125651e-01  0.000000e+00
    outer loop
      vertex   3.252758e+01  2.127676e+01  0.000000e+00
      vertex   3.303104e+01  1.896243e+01  7.800000e+01
      vertex   3.303104e+01  1.896243e+01  0.000000e+00
    endloop
  endfacet
  facet normal  9.974521e-01  7.133937e-02 -0.000000e+00
    outer loop
      vertex   3.303104e+01  1.896243e+01  0.000000e+00
      vertex   3.303104e+01  1.896243e+01  7.800000e+01
      vertex   3.320000e+01  1.660000e+01  7.800000e+01
    endloop
  endfacet
  facet normal  9.974521e-01  7.133937e-02  0.000000e+00
    outer loop
      vertex   3.303104e+01  1.896243e+01  0.000000e+00
      vertex   3.320000e+01  1.660000e+01  7.800000e+01
      vertex   3.320000e+01  1.660000e+01  0.000000e+00
    endloop
  endfacet
  facet normal  9.974521e-01 -7.133930e-02  0.000000e+00
    outer loop
      vertex   3.320000e+01  1.660000e+01  0.000000e+00
      vertex   3.320000e+01  1.660000e+01  7.800000e+01
      vertex   3.303104e+01  1.423757e+01  7.800000e+01
    endloop
  endfacet
  facet normal  9.974521e-01 -7.133930e-02  0.000000e+00
    outer loop
      vertex   3.320000e+01  1.660000e+01  0.000000e+00
      vertex   3.303104e+01  1.423757e+01  7.800000e+01
      vertex   3.303104e+01  1.423757e+01  0.000000e+00
    endloop
  endfacet
  facet normal  9.771469e-01 -2.125651e-01  0.000000e+00
    outer loop
      vertex   3.303104e+01  1.423757e+01  0.000000e+00
      vertex   3.303104e+01  1.423757e+01  7.800000e+01
      vertex   3.252758e+01  1.192324e+01  7.800000e+01
    endloop
  endfacet
  facet normal  9.771469e-01 -2.125651e-01  0.000000e+00
    outer loop
      vertex   3.303104e+01  1.423757e+01  0.000000e+00
      vertex   3.252758e+01  1.192324e+01  7.800000e+01
      vertex   3.252758e+01  1.192324e+01  0.000000e+00
    endloop
  endfacet
  facet normal  9.369497e-01 -3.494643e-01  0.000000e+00
    outer loop
      vertex   3.252758e+01  1.192324e+01  0.000000e+00
      vertex   3.252758e+01  1.192324e+01  7.800000e+01
      vertex   3.169989e+01  9.704111e+00  7.800000e+01
    endloop
  endfacet
  facet normal  9.369497e-01 -3.494643e-01  0.000000e+00
    outer loop
      vertex   3.252758e+01  1.192324e+01  0.000000e+00
      vertex   3.169989e+01  9.704111e+00  7.800000e+01
      vertex   3.169989e+01  9.704111e+00  0.000000e+00
    endloop
  endfacet
  facet normal  8.776788e-01 -4.792494e-01  0.000000e+00
    outer loop
      vertex   3.169989e+01  9.704111e+00  0.000000e+00
      vertex   3.169989e+01  9.704111e+00  7.800000e+01
      vertex   3.056481e+01  7.625362e+00  7.800000e+01
    endloop
  endfacet
  facet normal  8.776788e-01 -4.792494e-01  0.000000e+00
    outer loop
      vertex   3.169989e+01  9.704111e+00  0.000000e+00
      vertex   3.056481e+01  7.625362e+00  7.800000e+01
      vertex   3.056481e+01  7.625362e+00  0.000000e+00
    endloop
  endfacet
  facet normal  8.005415e-01 -5.992774e-01  0.000000e+00
    outer loop
      vertex   3.056481e+01  7.625362e+00  0.000000e+00
      vertex   3.056481e+01  7.625362e+00  7.800000e+01
      vertex   2.914544e+01  5.729311e+00  7.800000e+01
    endloop
  endfacet
  facet normal  8.005415e-01 -5.992774e-01  0.000000e+00
    outer loop
      vertex   3.056481e+01  7.625362e+00  0.000000e+00
      vertex   2.914544e+01  5.729311e+00  7.800000e+01
      vertex   2.914544e+01  5.729311e+00  0.000000e+00
    endloop
  endfacet
  facet normal  7.071066e-01 -7.071068e-01  0.000000e+00
    outer loop
      vertex   2.914544e+01  5.729311e+00  0.000000e+00
      vertex   2.914544e+01  5.729311e+00  7.800000e+01
      vertex   2.747069e+01  4.054556e+00  7.800000e+01
    endloop
  endfacet
  facet normal  7.071066e-01 -7.071068e-01  0.000000e+00
    outer loop
      vertex   2.914544e+01  5.729311e+00  0.000000e+00
      vertex   2.747069e+01  4.054556e+00  7.800000e+01
      vertex   2.747069e+01  4.054556e+00  0.000000e+00
    endloop
  endfacet
  facet normal  5.992777e-01 -8.005412e-01  0.000000e+00
    outer loop
      vertex   2.747069e+01  4.054556e+00  0.000000e+00
      vertex   2.747069e+01  4.054556e+00  7.800000e+01
      vertex   2.557464e+01  2.635191e+00  7.800000e+01
    endloop
  endfacet
  facet normal  5.992777e-01 -8.005412e-01  0.000000e+00
    outer loop
      vertex   2.747069e+01  4.054556e+00  0.000000e+00
      vertex   2.557464e+01  2.635191e+00  7.800000e+01
      vertex   2.557464e+01  2.635191e+00  0.000000e+00
    endloop
  endfacet
  facet normal  4.792491e-01 -8.776789e-01  0.000000e+00
    outer loop
      vertex   2.557464e+01  2.635191e+00  0.000000e+00
      vertex   2.557464e+01  2.635191e+00  7.800000e+01
      vertex   2.349589e+01  1.500108e+00  7.800000e+01
    endloop
  endfacet
  facet normal  4.792491e-01 -8.776789e-01  0.000000e+00
    outer loop
      vertex   2.557464e+01  2.635191e+00  0.000000e+00
      vertex   2.349589e+01  1.500108e+00  7.800000e+01
      vertex   2.349589e+01  1.500108e+00  0.000000e+00
    endloop
  endfacet
  facet normal  3.494638e-01 -9.369499e-01  0.000000e+00
    outer loop
      vertex   2.349589e+01  1.500108e+00  0.000000e+00
      vertex   2.349589e+01  1.500108e+00  7.800000e+01
      vertex   2.127676e+01  6.724167e-01  7.800000e+01
    endloop
  endfacet
  facet normal  3.494638e-01 -9.369499e-01  0.000000e+00
    outer loop
      vertex   2.349589e+01  1.500108e+00  0.000000e+00
      vertex   2.127676e+01  6.724167e-01  7.800000e+01
      vertex   2.127676e+01  6.724167e-01  0.000000e+00
    endloop
  endfacet
  facet normal  2.125652e-01 -9.771469e-01  0.000000e+00
    outer loop
      vertex   2.127676e+01  6.724167e-01  0.000000e+00
      vertex   2.127676e+01  6.724167e-01  7.800000e+01
      vertex   1.896243e+01  1.689643e-01  7.800000e+01
    endloop
  endfacet
  facet normal  2.125652e-01 -9.771469e-01  0.000000e+00
    outer loop
      vertex   2.127676e+01  6.724167e-01  0.000000e+00
      vertex   1.896243e+01  1.689643e-01  7.800000e+01
      vertex   1.896243e+01  1.689643e-01  0.000000e+00
    endloop
  endfacet
  facet normal  7.133932e-02 -9.974521e-01  0.000000e+00
    outer loop
      vertex   1.896243e+01  1.689643e-01  0.000000e+00
      vertex   1.896243e+01  1.689643e-01  7.800000e+01
      vertex   1.660000e+01  0.000000e+00  7.800000e+01
    endloop
  endfacet
  facet normal  7.133932e-02 -9.974521e-01  0.000000e+00
    outer loop
      vertex   1.896243e+01  1.689643e-01  0.000000e+00
      vertex   1.660000e+01  0.000000e+00  7.800000e+01
      vertex   1.660000e+01  0.000000e+00  0.000000e+00
    endloop
  endfacet
  facet normal -7.133925e-02 -9.974521e-01  0.000000e+00
    outer loop
      vertex   1.660000e+01  0.000000e+00  0.000000e+00
      vertex   1.660000e+01  0.000000e+00  7.800000e+01
      vertex   1.423757e+01  1.689643e-01  7.800000e+01
    endloop
  endfacet
  facet normal -7.133925e-02 -9.974521e-01  0.000000e+00
    outer loop
      vertex   1.660000e+01  0.000000e+00  0.000000e+00
      vertex   1.423757e+01  1.689643e-01  7.800000e+01
      vertex   1.423757e+01  1.689643e-01  0.000000e+00
    endloop
  endfacet
  facet normal -2.125652e-01 -9.771469e-01  0.000000e+00
    outer loop
      vertex   1.423757e+01  1.689643e-01  0.000000e+00
      vertex   1.423757e+01  1.689643e-01  7.800000e+01
      vertex   1.192324e+01  6.724167e-01  7.800000e+01
    endloop
  endfacet
  facet normal -2.125652e-01 -9.771469e-01  0.000000e+00
    outer loop
      vertex   1.423757e+01  1.689643e-01  0.000000e+00
      vertex   1.192324e+01  6.724167e-01  7.800000e+01
      vertex   1.192324e+01  6.724167e-01  0.000000e+00
    endloop
  endfacet
  facet normal -3.494641e-01 -9.369498e-01  0.000000e+00
    outer loop
      vertex   1.192324e+01  6.724167e-01  0.000000e+00
      vertex   1.192324e+01  6.724167e-01  7.800000e+01
      vertex   9.704111e+00  1.500108e+00  7.800000e+01
    endloop
  endfacet
  facet normal -3.494641e-01 -9.369498e-01  0.000000e+00
    outer loop
      vertex   1.192324e+01  6.724167e-01  0.000000e+00
      vertex   9.704111e+00  1.500108e+00  7.800000e+01
      vertex   9.704111e+00  1.500108e+00  0.000000e+00
    endloop
  endfacet
  facet normal -4.792489e-01 -8.776789e-01  0.000000e+00
    outer loop
      vertex   9.704111e+00  1.500108e+00  0.000000e+00
      vertex   9.704111e+00  1.500108e+00  7.800000e+01
      vertex   7.625362e+00  2.635191e+00  7.800000e+01
    endloop
  endfacet
  facet normal -4.792489e-01 -8.776789e-01  0.000000e+00
    outer loop
      vertex   9.704111e+00  1.500108e+00  0.000000e+00
      vertex   7.625362e+00  2.635191e+00  7.800000e+01
      vertex   7.625362e+00  2.635191e+00  0.000000e+00
    endloop
  endfacet
  facet normal -5.992775e-01 -8.005415e-01  0.000000e+00
    outer loop
      vertex   7.625362e+00  2.635191e+00  0.000000e+00
      vertex   7.625362e+00  2.635191e+00  7.800000e+01
      vertex   5.729311e+00  4.054556e+00  7.800000e+01
    endloop
  endfacet
  facet normal -5.992775e-01 -8.005415e-01  0.000000e+00
    outer loop
      vertex   7.625362e+00  2.635191e+00  0.000000e+00
      vertex   5.729311e+00  4.054556e+00  7.800000e+01
      vertex   5.729311e+00  4.054556e+00  0.000000e+00
    endloop
  endfacet
  facet normal -7.071068e-01 -7.071068e-01  0.000000e+00
    outer loop
      vertex   5.729311e+00  4.054556e+00  0.000000e+00
      vertex   5.729311e+00  4.054556e+00  7.800000e+01
      vertex   4.054556e+00  5.729311e+00  7.800000e+01
    endloop
  endfacet
  facet normal -7.071068e-01 -7.071068e-01  0.000000e+00
    outer loop
      vertex   5.729311e+00  4.054556e+00  0.000000e+00
      vertex   4.054556e+00  5.729311e+00  7.800000e+01
      vertex   4.054556e+00  5.729311e+00  0.000000e+00
    endloop
  endfacet
  facet normal -8.005415e-01 -5.992775e-01  0.000000e+00
    outer loop
      vertex   4.054556e+00  5.729311e+00  0.000000e+00
      vertex   4.054556e+00  5.729311e+00  7.800000e+01
      vertex   2.635191e+00  7.625362e+00  7.800000e+01
    endloop
  endfacet
  facet normal -8.005415e-01 -5.992775e-01  0.000000e+00
    outer loop
      vertex   4.054556e+00  5.729311e+00  0.000000e+00
      vertex   2.635191e+00  7.625362e+00  7.800000e+01
      vertex   2.635191e+00  7.625362e+00  0.000000e+00
    endloop
  endfacet
  facet normal -8.776789e-01 -4.792489e-01  0.000000e+00
    outer loop
      vertex   2.635191e+00  7.625362e+00  0.000000e+00
      vertex   2.635191e+00  7.625362e+00  7.800000e+01
      vertex   1.500108e+00  9.704111e+00  7.800000e+01
    endloop
  endfacet
  facet normal -8.776789e-01 -4.792489e-01  0.000000e+00
    outer loop
      vertex   2.635191e+00  7.625362e+00  0.000000e+00
      vertex   1.500108e+00  9.704111e+00  7.800000e+01
      vertex   1.500108e+00  9.704111e+00  0.000000e+00
    endloop
  endfacet
  facet normal -9.369498e-01 -3.494641e-01  0.000000e+00
    outer loop
      vertex   1.500108e+00  9.704111e+00  0.000000e+00
      vertex   1.500108e+00  9.704111e+00  7.800000e+01
      vertex   6.724167e-01  1.192324e+01  7.800000e+01
    endloop
  endfacet
  facet normal -9.369498e-01 -3.494641e-01  0.000000e+00
    outer loop
      vertex   1.500108e+00  9.704111e+00  0.000000e+00
      vertex   6.724167e-01  1.192324e+01  7.800000e+01
      vertex   6.724167e-01  1.192324e+01  0.000000e+00
    endloop
  endfacet
  facet normal -9.771469e-01 -2.125652e-01  0.000000e+00
    outer loop
      vertex   6.724167e-01  1.192324e+01  0.000000e+00
      vertex   6.724167e-01  1.192324e+01  7.800000e+01
      vertex   1.689643e-01  1.423757e+01  7.800000e+01
    endloop
  endfacet
  facet normal -9.771469e-01 -2.125652e-01  0.000000e+00
    outer loop
      vertex   6.724167e-01  1.192324e+01  0.000000e+00
      vertex   1.689643e-01  1.423757e+01  7.800000e+01
      vertex   1.689643e-01  1.423757e+01  0.000000e+00
    endloop
  endfacet
  facet normal -9.974521e-01 -7.133925e-02  0.000000e+00
    outer loop
      vertex   1.689643e-01  1.423757e+01  0.000000e+00
      vertex   1.689643e-01  1.423757e+01  7.800000e+01
      vertex   0.000000e+00  1.660000e+01  7.800000e+01
    endloop
  endfacet
  facet normal -9.974521e-01 -7.133925e-02  0.000000e+00
    outer loop
      vertex   1.689643e-01  1.423757e+01  0.000000e+00
      vertex   0.000000e+00  1.660000e+01  7.800000e+01
      vertex   0.000000e+00  1.660000e+01  0.000000e+00
    endloop
  endfacet
  facet normal -9.974521e-01  7.133932e-02  0.000000e+00
    outer loop
      vertex   0.000000e+00  1.660000e+01  0.000000e+00
      vertex   0.000000e+00  1.660000e+01  7.800000e+01
      vertex   1.689643e-01  1.896243e+01  7.800000e+01
    endloop
  endfacet
  facet normal  0.000000e+00  0.000000e+00  1.000000e+00
    outer loop
      vertex   1.190148e+01  4.211035e+00  7.800000e+01
      vertex   1.192324e+01  6.724167e-01  7.800000e+01
      vertex   1.394966e+01  3.617774e+00  7.800000e+01
    endloop
  endfacet
  facet normal  0.000000e+00  0.000000e+00  1.000000e+00
    outer loop
      vertex   1.394966e+01  3.617774e+00  7.800000e+01
      vertex   1.192324e+01  6.724167e-01  7.800000e+01
      vertex   1.423757e+01  1.689643e-01  7.800000e+01
    endloop
  endfacet
  facet normal  0.000000e+00  0.000000e+00  1.000000e+00
    outer loop
      vertex   1.394966e+01  3.617774e+00  7.800000e+01
      vertex   1.423757e+01  1.689643e-01  7.800000e+01
      vertex   1.606648e+01  3.360745e+00  7.800000e+01
    endloop
  endfacet
  facet normal  0.000000e+00  0.000000e+00  1.000000e+00
    outer loop
      vertex   1.606648e+01  3.360745e+00  7.800000e+01
      vertex   1.423757e+01  1.689643e-01  7.800000e+01
      vertex   1.660000e+01  0.000000e+00  7.800000e+01
    endloop
  endfacet
  facet normal -0.000000e+00  0.000000e+00  1.000000e+00
    outer loop
      vertex   1.606648e+01  3.360745e+00  7.800000e+01
      vertex   1.660000e+01  0.000000e+00  7.800000e+01
      vertex   1.819711e+01  3.446607e+00  7.800000e+01
    endloop
  endfacet
  facet normal  0.000000e+00  0.000000e+00  1.000000e+00
    outer loop
      vertex   1.819711e+01  3.446607e+00  7.800000e+01
      vertex   1.660000e+01  0.000000e+00  7.800000e+01
      vertex   1.896243e+01  1.689643e-01  7.800000e+01
    endloop
  endfacet
  facet normal -0.000000e+00  0.000000e+00  1.000000e+00
    outer loop
      vertex   1.819711e+01  3.446607e+00  7.800000e+01
      vertex   1.896243e+01  1.689643e-01  7.800000e+01
      vertex   2.028638e+01  3.873135e+00  7.800000e+01
    endloop
  endfacet
  facet normal  0.000000e+00  0.000000e+00  1.000000e+00
    outer loop
      vertex   2.028638e+01  3.873135e+00  7.800000e+01
      vertex   1.896243e+01  1.689643e-01  7.800000e+01
      vertex   2.127676e+01  6.724167e-01  7.800000e+01
    endloop
  endfacet
  facet normal -0.000000e+00  0.000000e+00  1.000000e+00
    outer loop
      vertex   2.028638e+01  3.873135e+00  7.800000e+01
      vertex   2.127676e+01  6.724167e-01  7.800000e+01
      vertex   2.228018e+01  4.629282e+00  7.800000e+01
    endloop
  endfacet
  facet normal  0.000000e+00  0.000000e+00  1.000000e+00
    outer loop
      vertex   2.228018e+01  4.629282e+00  7.800000e+01
      vertex   2.127676e+01  6.724167e-01  7.800000e+01
      vertex   2.349589e+01  1.500108e+00  7.800000e+01
    endloop
  endfacet
  facet normal -0.000000e+00  0.000000e+00  1.000000e+00
    outer loop
      vertex   2.228018e+01  4.629282e+00  7.800000e+01
      vertex   2.349589e+01  1.500108e+00  7.800000e+01
      vertex   2.412686e+01  5.695463e+00  7.800000e+01
    endloop
  endfacet
  facet normal  0.000000e+00  0.000000e+00  1.000000e+00
    outer loop
      vertex   2.412686e+01  5.695463e+00  7.800000e+01
      vertex   2.349589e+01  1.500108e+00  7.800000e+01
      vertex   2.557464e+01  2.635191e+00  7.800000e+01
    endloop
  endfacet
  facet normal -0.000000e+00  0.000000e+00  1.000000e+00
    outer loop
      vertex   2.412686e+01  5.695463e+00  7.800000e+01
      vertex   2.557464e+01  2.635191e+00  7.800000e+01
      vertex   2.577860e+01  7.044067e+00  7.800000e+01
    endloop
  endfacet
  facet normal  0.000000e+00  0.000000e+00  1.000000e+00
    outer loop
      vertex   2.577860e+01  7.044067e+00  7.800000e+01
      vertex   2.557464e+01  2.635191e+00  7.800000e+01
      vertex   2.747069e+01  4.054556e+00  7.800000e+01
    endloop
  endfacet
  facet normal -0.000000e+00  0.000000e+00  1.000000e+00
    outer loop
      vertex   2.577860e+01  7.044067e+00  7.800000e+01
      vertex   2.747069e+01  4.054556e+00  7.800000e+01
      vertex   2.719262e+01  8.640164e+00  7.800000e+01
    endloop
  endfacet
  facet normal  0.000000e+00  0.000000e+00  1.000000e+00
    outer loop
      vertex   3.392966e+00  1.766618e+01  7.800000e+01
      vertex   0.000000e+00  1.660000e+01  7.800000e+01
      vertex   3.392966e+00  1.553382e+01  7.800000e+01
    endloop
  endfacet
  facet normal  0.000000e+00  0.000000e+00  1.000000e+00
    outer loop
      vertex   3.392966e+00  1.553382e+01  7.800000e+01
      vertex   0.000000e+00  1.660000e+01  7.800000e+01
      vertex   1.689643e-01  1.423757e+01  7.800000e+01
    endloop
  endfacet
  facet normal  0.000000e+00  0.000000e+00  1.000000e+00
    outer loop
      vertex   3.392966e+00  1.553382e+01  7.800000e+01
      vertex   1.689643e-01  1.423757e+01  7.800000e+01
      vertex   3.735021e+00  1.342907e+01  7.800000e+01
    endloop
  endfacet
  facet normal  0.000000e+00  0.000000e+00  1.000000e+00
    outer loop
      vertex   3.735021e+00  1.342907e+01  7.800000e+01
      vertex   1.689643e-01  1.423757e+01  7.800000e+01
      vertex   6.724167e-01  1.192324e+01  7.800000e+01
    endloop
  endfacet
  facet normal  0.000000e+00  0.000000e+00  1.000000e+00
    outer loop
      vertex   3.735021e+00  1.342907e+01  7.800000e+01
      vertex   6.724167e-01  1.192324e+01  7.800000e+01
      vertex   4.410273e+00  1.140644e+01  7.800000e+01
    endloop
  endfacet
  facet normal  0.000000e+00  0.000000e+00  1.000000e+00
    outer loop
      vertex   4.410273e+00  1.140644e+01  7.800000e+01
      vertex   6.724167e-01  1.192324e+01  7.800000e+01
      vertex   1.500108e+00  9.704111e+00  7.800000e+01
    endloop
  endfacet
  facet normal  0.000000e+00  0.000000e+00  1.000000e+00
    outer loop
      vertex   4.410273e+00  1.140644e+01  7.800000e+01
      vertex   1.500108e+00  9.704111e+00  7.800000e+01
      vertex   5.401231e+00  9.518328e+00  7.800000e+01
    endloop
  endfacet
  facet normal  0.000000e+00  0.000000e+00  1.000000e+00
    outer loop
      vertex   5.401231e+00  9.518328e+00  7.800000e+01
      vertex   1.500108e+00  9.704111e+00  7.800000e+01
      vertex   2.635191e+00  7.625362e+00  7.800000e+01
    endloop
  endfacet
  facet normal  0.000000e+00  0.000000e+00  1.000000e+00
    outer loop
      vertex   5.401231e+00  9.518328e+00  7.800000e+01
      vertex   2.635191e+00  7.625362e+00  7.800000e+01
      vertex   6.682232e+00  7.813624e+00  7.800000e+01
    endloop
  endfacet
  facet normal  0.000000e+00  0.000000e+00  1.000000e+00
    outer loop
      vertex   6.682232e+00  7.813624e+00  7.800000e+01
      vertex   2.635191e+00  7.625362e+00  7.800000e+01
      vertex   4.054556e+00  5.729311e+00  7.800000e+01
    endloop
  endfacet
  facet normal  0.000000e+00  0.000000e+00  1.000000e+00
    outer loop
      vertex   6.682232e+00  7.813624e+00  7.800000e+01
      vertex   4.054556e+00  5.729311e+00  7.800000e+01
      vertex   8.220098e+00  6.336484e+00  7.800000e+01
    endloop
  endfacet
  facet normal  0.000000e+00  0.000000e+00  1.000000e+00
    outer loop
      vertex   8.220098e+00  6.336484e+00  7.800000e+01
      vertex   4.054556e+00  5.729311e+00  7.800000e+01
      vertex   5.729311e+00  4.054556e+00  7.800000e+01
    endloop
  endfacet
  facet normal  0.000000e+00  0.000000e+00  1.000000e+00
    outer loop
      vertex   8.220098e+00  6.336484e+00  7.800000e+01
      vertex   5.729311e+00  4.054556e+00  7.800000e+01
      vertex   9.974999e+00  5.125163e+00  7.800000e+01
    endloop
  endfacet
  facet normal  0.000000e+00  0.000000e+00  1.000000e+00
    outer loop
      vertex   9.974999e+00  5.125163e+00  7.800000e+01
      vertex   5.729311e+00  4.054556e+00  7.800000e+01
      vertex   7.625362e+00  2.635191e+00  7.800000e+01
    endloop
  endfacet
  facet normal  0.000000e+00  0.000000e+00  1.000000e+00
    outer loop
      vertex   9.974999e+00  5.125163e+00  7.800000e+01
      vertex   7.625362e+00  2.635191e+00  7.800000e+01
      vertex   1.190148e+01  4.211035e+00  7.800000e+01
    endloop
  endfacet
  facet normal  0.000000e+00  0.000000e+00  1.000000e+00
    outer loop
      vertex   1.190148e+01  4.211035e+00  7.800000e+01
      vertex   7.625362e+00  2.635191e+00  7.800000e+01
      vertex   9.704111e+00  1.500108e+00  7.800000e+01
    endloop
  endfacet
  facet normal  0.000000e+00  0.000000e+00  1.000000e+00
    outer loop
      vertex   1.190148e+01  4.211035e+00  7.800000e+01
      vertex   9.704111e+00  1.500108e+00  7.800000e+01
      vertex   1.192324e+01  6.724167e-01  7.800000e+01
    endloop
  endfacet
  facet normal  0.000000e+00  0.000000e+00  1.000000e+00
    outer loop
      vertex   1.394966e+01  2.958223e+01  7.800000e+01
      vertex   1.192324e+01  3.252758e+01  7.800000e+01
      vertex   1.190148e+01  2.898896e+01  7.800000e+01
    endloop
  endfacet
  facet normal  0.000000e+00 -0.000000e+00  1.000000e+00
    outer loop
      vertex   1.190148e+01  2.898896e+01  7.800000e+01
      vertex   1.192324e+01  3.252758e+01  7.800000e+01
      vertex   9.704111e+00  3.169989e+01  7.800000e+01
    endloop
  endfacet
  facet normal  0.000000e+00  0.000000e+00  1.000000e+00
    outer loop
      vertex   1.190148e+01  2.898896e+01  7.800000e+01
      vertex   9.704111e+00  3.169989e+01  7.800000e+01
      vertex   9.974999e+00  2.807484e+01  7.800000e+01
    endloop
  endfacet
  facet normal  0.000000e+00  0.000000e+00  1.000000e+00
    outer loop
      vertex   9.974999e+00  2.807484e+01  7.800000e+01
      vertex   9.704111e+00  3.169989e+01  7.800000e+01
      vertex   7.625362e+00  3.056481e+01  7.800000e+01
    endloop
  endfacet
  facet normal  0.000000e+00  0.000000e+00  1.000000e+00
    outer loop
      vertex   9.974999e+00  2.807484e+01  7.800000e+01
      vertex   7.625362e+00  3.056481e+01  7.800000e+01
      vertex   8.220098e+00  2.686352e+01  7.800000e+01
    endloop
  endfacet
  facet normal  0.000000e+00  0.000000e+00  1.000000e+00
    outer loop
      vertex   8.220098e+00  2.686352e+01  7.800000e+01
      vertex   7.625362e+00  3.056481e+01  7.800000e+01
      vertex   5.729311e+00  2.914544e+01  7.800000e+01
    endloop
  endfacet
  facet normal  0.000000e+00  0.000000e+00  1.000000e+00
    outer loop
      vertex   8.220098e+00  2.686352e+01  7.800000e+01
      vertex   5.729311e+00  2.914544e+01  7.800000e+01
      vertex   6.682232e+00  2.538638e+01  7.800000e+01
    endloop
  endfacet
  facet normal  0.000000e+00  0.000000e+00  1.000000e+00
    outer loop
      vertex   6.682232e+00  2.538638e+01  7.800000e+01
      vertex   5.729311e+00  2.914544e+01  7.800000e+01
      vertex   4.054556e+00  2.747069e+01  7.800000e+01
    endloop
  endfacet
  facet normal  0.000000e+00  0.000000e+00  1.000000e+00
    outer loop
      vertex   6.682232e+00  2.538638e+01  7.800000e+01
      vertex   4.054556e+00  2.747069e+01  7.800000e+01
      vertex   5.401231e+00  2.368167e+01  7.800000e+01
    endloop
  endfacet
  facet normal  0.000000e+00  0.000000e+00  1.000000e+00
    outer loop
      vertex   5.401231e+00  2.368167e+01  7.800000e+01
      vertex   4.054556e+00  2.747069e+01  7.800000e+01
      vertex   2.635191e+00  2.557464e+01  7.800000e+01
    endloop
  endfacet
  facet normal  0.000000e+00  0.000000e+00  1.000000e+00
    outer loop
      vertex   5.401231e+00  2.368167e+01  7.800000e+01
      vertex   2.635191e+00  2.557464e+01  7.800000e+01
      vertex   4.410273e+00  2.179356e+01  7.800000e+01
    endloop
  endfacet
  facet normal  0.000000e+00  0.000000e+00  1.000000e+00
    outer loop
      vertex   4.410273e+00  2.179356e+01  7.800000e+01
      vertex   2.635191e+00  2.557464e+01  7.800000e+01
      vertex   1.500108e+00  2.349589e+01  7.800000e+01
    endloop
  endfacet
  facet normal  0.000000e+00  0.000000e+00  1.000000e+00
    outer loop
      vertex   4.410273e+00  2.179356e+01  7.800000e+01
      vertex   1.500108e+00  2.349589e+01  7.800000e+01
      vertex   3.735021e+00  1.977093e+01  7.800000e+01
    endloop
  endfacet
  facet normal  0.000000e+00  0.000000e+00  1.000000e+00
    outer loop
      vertex   3.735021e+00  1.977093e+01  7.800000e+01
      vertex   1.500108e+00  2.349589e+01  7.800000e+01
      vertex   6.724167e-01  2.127676e+01  7.800000e+01
    endloop
  endfacet
  facet normal  0.000000e+00  0.000000e+00  1.000000e+00
    outer loop
      vertex   3.735021e+00  1.977093e+01  7.800000e+01
      vertex   6.724167e-01  2.127676e+01  7.800000e+01
      vertex   3.392966e+00  1.766618e+01  7.800000e+01
    endloop
  endfacet
  facet normal  0.000000e+00  0.000000e+00  1.000000e+00
    outer loop
      vertex   3.392966e+00  1.766618e+01  7.800000e+01
      vertex   6.724167e-01  2.127676e+01  7.800000e+01
      vertex   1.689643e-01  1.896243e+01  7.800000e+01
    endloop
  endfacet
  facet normal  0.000000e+00  0.000000e+00  1.000000e+00
    outer loop
      vertex   3.392966e+00  1.766618e+01  7.800000e+01
      vertex   1.689643e-01  1.896243e+01  7.800000e+01
      vertex   0.000000e+00  1.660000e+01  7.800000e+01
    endloop
  endfacet
  facet normal  0.000000e+00 -0.000000e+00  1.000000e+00
    outer loop
      vertex   2.833229e+01  2.275758e+01  7.800000e+01
      vertex   3.056481e+01  2.557464e+01  7.800000e+01
      vertex   2.719262e+01  2.455984e+01  7.800000e+01
    endloop
  endfacet
  facet normal  0.000000e+00  0.000000e+00  1.000000e+00
    outer loop
      vertex   2.719262e+01  2.455984e+01  7.800000e+01
      vertex   3.056481e+01  2.557464e+01  7.800000e+01
      vertex   2.914544e+01  2.747069e+01  7.800000e+01
    endloop
  endfacet
  facet normal  0.000000e+00 -0.000000e+00  1.000000e+00
    outer loop
      vertex   2.719262e+01  2.455984e+01  7.800000e+01
      vertex   2.914544e+01  2.747069e+01  7.800000e+01
      vertex   2.577860e+01  2.615593e+01  7.800000e+01
    endloop
  endfacet
  facet normal  0.000000e+00  0.000000e+00  1.000000e+00
    outer loop
      vertex   2.577860e+01  2.615593e+01  7.800000e+01
      vertex   2.914544e+01  2.747069e+01  7.800000e+01
      vertex   2.747069e+01  2.914544e+01  7.800000e+01
    endloop
  endfacet
  facet normal  0.000000e+00 -0.000000e+00  1.000000e+00
    outer loop
      vertex   2.577860e+01  2.615593e+01  7.800000e+01
      vertex   2.747069e+01  2.914544e+01  7.800000e+01
      vertex   2.412686e+01  2.750454e+01  7.800000e+01
    endloop
  endfacet
  facet normal  0.000000e+00  0.000000e+00  1.000000e+00
    outer loop
      vertex   2.412686e+01  2.750454e+01  7.800000e+01
      vertex   2.747069e+01  2.914544e+01  7.800000e+01
      vertex   2.557464e+01  3.056481e+01  7.800000e+01
    endloop
  endfacet
  facet normal  0.000000e+00 -0.000000e+00  1.000000e+00
    outer loop
      vertex   2.412686e+01  2.750454e+01  7.800000e+01
      vertex   2.557464e+01  3.056481e+01  7.800000e+01
      vertex   2.228018e+01  2.857072e+01  7.800000e+01
    endloop
  endfacet
  facet normal  0.000000e+00  0.000000e+00  1.000000e+00
    outer loop
      vertex   2.228018e+01  2.857072e+01  7.800000e+01
      vertex   2.557464e+01  3.056481e+01  7.800000e+01
      vertex   2.349589e+01  3.169989e+01  7.800000e+01
    endloop
  endfacet
  facet normal  0.000000e+00 -0.000000e+00  1.000000e+00
    outer loop
      vertex   2.228018e+01  2.857072e+01  7.800000e+01
      vertex   2.349589e+01  3.169989e+01  7.800000e+01
      vertex   2.028638e+01  2.932686e+01  7.800000e+01
    endloop
  endfacet
  facet normal  0.000000e+00  0.000000e+00  1.000000e+00
    outer loop
      vertex   2.028638e+01  2.932686e+01  7.800000e+01
      vertex   2.349589e+01  3.169989e+01  7.800000e+01
      vertex   2.127676e+01  3.252758e+01  7.800000e+01
    endloop
  endfacet
  facet normal  0.000000e+00 -0.000000e+00  1.000000e+00
    outer loop
      vertex   2.028638e+01  2.932686e+01  7.800000e+01
      vertex   2.127676e+01  3.252758e+01  7.800000e+01
      vertex   1.819711e+01  2.975339e+01  7.800000e+01
    endloop
  endfacet
  facet normal  0.000000e+00  0.000000e+00  1.000000e+00
    outer loop
      vertex   1.819711e+01  2.975339e+01  7.800000e+01
      vertex   2.127676e+01  3.252758e+01  7.800000e+01
      vertex   1.896243e+01  3.303104e+01  7.800000e+01
    endloop
  endfacet
  facet normal  0.000000e+00 -0.000000e+00  1.000000e+00
    outer loop
      vertex   1.819711e+01  2.975339e+01  7.800000e+01
      vertex   1.896243e+01  3.303104e+01  7.800000e+01
      vertex   1.606648e+01  2.983925e+01  7.800000e+01
    endloop
  endfacet
  facet normal  0.000000e+00  0.000000e+00  1.000000e+00
    outer loop
      vertex   1.606648e+01  2.983925e+01  7.800000e+01
      vertex   1.896243e+01  3.303104e+01  7.800000e+01
      vertex   1.660000e+01  3.320000e+01  7.800000e+01
    endloop
  endfacet
  facet normal  0.000000e+00 -0.000000e+00  1.000000e+00
    outer loop
      vertex   1.606648e+01  2.983925e+01  7.800000e+01
      vertex   1.660000e+01  3.320000e+01  7.800000e+01
      vertex   1.394966e+01  2.958223e+01  7.800000e+01
    endloop
  endfacet
  facet normal  0.000000e+00  0.000000e+00  1.000000e+00
    outer loop
      vertex   1.394966e+01  2.958223e+01  7.800000e+01
      vertex   1.660000e+01  3.320000e+01  7.800000e+01
      vertex   1.423757e+01  3.303104e+01  7.800000e+01
    endloop
  endfacet
  facet normal  0.000000e+00 -0.000000e+00  1.000000e+00
    outer loop
      vertex   1.394966e+01  2.958223e+01  7.800000e+01
      vertex   1.423757e+01  3.303104e+01  7.800000e+01
      vertex   1.192324e+01  3.252758e+01  7.800000e+01
    endloop
  endfacet
  facet normal  0.000000e+00 -0.000000e+00  1.000000e+00
    outer loop
      vertex   2.747069e+01  4.054556e+00  7.800000e+01
      vertex   2.914544e+01  5.729311e+00  7.800000e+01
      vertex   2.719262e+01  8.640164e+00  7.800000e+01
    endloop
  endfacet
  facet normal  0.000000e+00  0.000000e+00  1.000000e+00
    outer loop
      vertex   2.719262e+01  8.640164e+00  7.800000e+01
      vertex   2.914544e+01  5.729311e+00  7.800000e+01
      vertex   3.056481e+01  7.625362e+00  7.800000e+01
    endloop
  endfacet
  facet normal -0.000000e+00  0.000000e+00  1.000000e+00
    outer loop
      vertex   2.719262e+01  8.640164e+00  7.800000e+01
      vertex   3.056481e+01  7.625362e+00  7.800000e+01
      vertex   2.833229e+01  1.044242e+01  7.800000e+01
    endloop
  endfacet
  facet normal  0.000000e+00  0.000000e+00  1.000000e+00
    outer loop
      vertex   2.833229e+01  1.044242e+01  7.800000e+01
      vertex   3.056481e+01  7.625362e+00  7.800000e+01
      vertex   3.169989e+01  9.704111e+00  7.800000e+01
    endloop
  endfacet
  facet normal -0.000000e+00  0.000000e+00  1.000000e+00
    outer loop
      vertex   2.833229e+01  1.044242e+01  7.800000e+01
      vertex   3.169989e+01  9.704111e+00  7.800000e+01
      vertex   2.916811e+01  1.240415e+01  7.800000e+01
    endloop
  endfacet
  facet normal  0.000000e+00  0.000000e+00  1.000000e+00
    outer loop
      vertex   2.916811e+01  1.240415e+01  7.800000e+01
      vertex   3.169989e+01  9.704111e+00  7.800000e+01
      vertex   3.252758e+01  1.192324e+01  7.800000e+01
    endloop
  endfacet
  facet normal -0.000000e+00  0.000000e+00  1.000000e+00
    outer loop
      vertex   2.916811e+01  1.240415e+01  7.800000e+01
      vertex   3.252758e+01  1.192324e+01  7.800000e+01
      vertex   2.967842e+01  1.447455e+01  7.800000e+01
    endloop
  endfacet
  facet normal  0.000000e+00  0.000000e+00  1.000000e+00
    outer loop
      vertex   2.967842e+01  1.447455e+01  7.800000e+01
      vertex   3.252758e+01  1.192324e+01  7.800000e+01
      vertex   3.303104e+01  1.423757e+01  7.800000e+01
    endloop
  endfacet
  facet normal -0.000000e+00  0.000000e+00  1.000000e+00
    outer loop
      vertex   2.967842e+01  1.447455e+01  7.800000e+01
      vertex   3.303104e+01  1.423757e+01  7.800000e+01
      vertex   2.985000e+01  1.660000e+01  7.800000e+01
    endloop
  endfacet
  facet normal -0.000000e+00  0.000000e+00  1.000000e+00
    outer loop
      vertex   2.985000e+01  1.660000e+01  7.800000e+01
      vertex   3.303104e+01  1.423757e+01  7.800000e+01
      vertex   3.320000e+01  1.660000e+01  7.800000e+01
    endloop
  endfacet
  facet normal  0.000000e+00 -0.000000e+00  1.000000e+00
    outer loop
      vertex   2.985000e+01  1.660000e+01  7.800000e+01
      vertex   3.320000e+01  1.660000e+01  7.800000e+01
      vertex   2.967842e+01  1.872545e+01  7.800000e+01
    endloop
  endfacet
  facet normal -0.000000e+00  0.000000e+00  1.000000e+00
    outer loop
      vertex   2.967842e+01  1.872545e+01  7.800000e+01
      vertex   3.320000e+01  1.660000e+01  7.800000e+01
      vertex   3.303104e+01  1.896243e+01  7.800000e+01
    endloop
  endfacet
  facet normal  0.000000e+00 -0.000000e+00  1.000000e+00
    outer loop
      vertex   2.967842e+01  1.872545e+01  7.800000e+01
      vertex   3.303104e+01  1.896243e+01  7.800000e+01
      vertex   2.916811e+01  2.079585e+01  7.800000e+01
    endloop
  endfacet
  facet normal -0.000000e+00  0.000000e+00  1.000000e+00
    outer loop
      vertex   2.916811e+01  2.079585e+01  7.800000e+01
      vertex   3.303104e+01  1.896243e+01  7.800000e+01
      vertex   3.252758e+01  2.127676e+01  7.800000e+01
    endloop
  endfacet
  facet normal  0.000000e+00 -0.000000e+00  1.000000e+00
    outer loop
      vertex   2.916811e+01  2.079585e+01  7.800000e+01
      vertex   3.252758e+01  2.127676e+01  7.800000e+01
      vertex   2.833229e+01  2.275758e+01  7.800000e+01
    endloop
  endfacet
  facet normal -0.000000e+00  0.000000e+00  1.000000e+00
    outer loop
      vertex   2.833229e+01  2.275758e+01  7.800000e+01
      vertex   3.252758e+01  2.127676e+01  7.800000e+01
      vertex   3.169989e+01  2.349589e+01  7.800000e+01
    endloop
  endfacet
  facet normal  0.000000e+00  0.000000e+00  1.000000e+00
    outer loop
      vertex   2.833229e+01  2.275758e+01  7.800000e+01
      vertex   3.169989e+01  2.349589e+01  7.800000e+01
      vertex   3.056481e+01  2.557464e+01  7.800000e+01
    endloop
  endfacet
  facet normal  0.000000e+00 -0.000000e+00 -1.000000e+00
    outer loop
      vertex   2.833229e+01  1.044242e+01  0.000000e+00
      vertex   3.056481e+01  7.625362e+00  0.000000e+00
      vertex   2.719262e+01  8.640164e+00  0.000000e+00
    endloop
  endfacet
  facet normal  0.000000e+00  0.000000e+00 -1.000000e+00
    outer loop
      vertex   2.719262e+01  8.640164e+00  0.000000e+00
      vertex   3.056481e+01  7.625362e+00  0.000000e+00
      vertex   2.914544e+01  5.729311e+00  0.000000e+00
    endloop
  endfacet
  facet normal  0.000000e+00 -0.000000e+00 -1.000000e+00
    outer loop
      vertex   2.719262e+01  8.640164e+00  0.000000e+00
      vertex   2.914544e+01  5.729311e+00  0.000000e+00
      vertex   2.577860e+01  7.044067e+00  0.000000e+00
    endloop
  endfacet
  facet normal  0.000000e+00  0.000000e+00 -1.000000e+00
    outer loop
      vertex   2.577860e+01  7.044067e+00  0.000000e+00
      vertex   2.914544e+01  5.729311e+00  0.000000e+00
      vertex   2.747069e+01  4.054556e+00  0.000000e+00
    endloop
  endfacet
  facet normal  0.000000e+00 -0.000000e+00 -1.000000e+00
    outer loop
      vertex   2.577860e+01  7.044067e+00  0.000000e+00
      vertex   2.747069e+01  4.054556e+00  0.000000e+00
      vertex   2.412686e+01  5.695463e+00  0.000000e+00
    endloop
  endfacet
  facet normal  0.000000e+00  0.000000e+00 -1.000000e+00
    outer loop
      vertex   2.412686e+01  5.695463e+00  0.000000e+00
      vertex   2.747069e+01  4.054556e+00  0.000000e+00
      vertex   2.557464e+01  2.635191e+00  0.000000e+00
    endloop
  endfacet
  facet normal  0.000000e+00 -0.000000e+00 -1.000000e+00
    outer loop
      vertex   2.412686e+01  5.695463e+00  0.000000e+00
      vertex   2.557464e+01  2.635191e+00  0.000000e+00
      vertex   2.228018e+01  4.629282e+00  0.000000e+00
    endloop
  endfacet
  facet normal  0.000000e+00  0.000000e+00 -1.000000e+00
    outer loop
      vertex   2.228018e+01  4.629282e+00  0.000000e+00
      vertex   2.557464e+01  2.635191e+00  0.000000e+00
      vertex   2.349589e+01  1.500108e+00  0.000000e+00
    endloop
  endfacet
  facet normal  0.000000e+00 -0.000000e+00 -1.000000e+00
    outer loop
      vertex   2.228018e+01  4.629282e+00  0.000000e+00
      vertex   2.349589e+01  1.500108e+00  0.000000e+00
      vertex   2.028638e+01  3.873135e+00  0.000000e+00
    endloop
  endfacet
  facet normal  0.000000e+00  0.000000e+00 -1.000000e+00
    outer loop
      vertex   2.028638e+01  3.873135e+00  0.000000e+00
      vertex   2.349589e+01  1.500108e+00  0.000000e+00
      vertex   2.127676e+01  6.724167e-01  0.000000e+00
    endloop
  endfacet
  facet normal  0.000000e+00 -0.000000e+00 -1.000000e+00
    outer loop
      vertex   2.028638e+01  3.873135e+00  0.000000e+00
      vertex   2.127676e+01  6.724167e-01  0.000000e+00
      vertex   1.819711e+01  3.446607e+00  0.000000e+00
    endloop
  endfacet
  facet normal  0.000000e+00  0.000000e+00 -1.000000e+00
    outer loop
      vertex   1.819711e+01  3.446607e+00  0.000000e+00
      vertex   2.127676e+01  6.724167e-01  0.000000e+00
      vertex   1.896243e+01  1.689643e-01  0.000000e+00
    endloop
  endfacet
  facet normal  0.000000e+00 -0.000000e+00 -1.000000e+00
    outer loop
      vertex   1.819711e+01  3.446607e+00  0.000000e+00
      vertex   1.896243e+01  1.689643e-01  0.000000e+00
      vertex   1.606648e+01  3.360745e+00  0.000000e+00
    endloop
  endfacet
  facet normal  0.000000e+00  0.000000e+00 -1.000000e+00
    outer loop
      vertex   1.606648e+01  3.360745e+00  0.000000e+00
      vertex   1.896243e+01  1.689643e-01  0.000000e+00
      vertex   1.660000e+01  0.000000e+00  0.000000e+00
    endloop
  endfacet
  facet normal -0.000000e+00 -0.000000e+00 -1.000000e+00
    outer loop
      vertex   1.606648e+01  3.360745e+00  0.000000e+00
      vertex   1.660000e+01  0.000000e+00  0.000000e+00
      vertex   1.394966e+01  3.617774e+00  0.000000e+00
    endloop
  endfacet
  facet normal  0.000000e+00  0.000000e+00 -1.000000e+00
    outer loop
      vertex   1.660000e+01  0.000000e+00  0.000000e+00
      vertex   1.423757e+01  1.689643e-01  0.000000e+00
      vertex   1.394966e+01  3.617774e+00  0.000000e+00
    endloop
  endfacet
  facet normal  0.000000e+00 -0.000000e+00 -1.000000e+00
    outer loop
      vertex   1.394966e+01  3.617774e+00  0.000000e+00
      vertex   1.423757e+01  1.689643e-01  0.000000e+00
      vertex   1.192324e+01  6.724167e-01  0.000000e+00
    endloop
  endfacet
  facet normal -0.000000e+00  0.000000e+00 -1.000000e+00
    outer loop
      vertex   1.394966e+01  3.617774e+00  0.000000e+00
      vertex   1.192324e+01  6.724167e-01  0.000000e+00
      vertex   1.190148e+01  4.211035e+00  0.000000e+00
    endloop
  endfacet
  facet normal  0.000000e+00 -0.000000e+00 -1.000000e+00
    outer loop
      vertex   1.190148e+01  4.211035e+00  0.000000e+00
      vertex   1.192324e+01  6.724167e-01  0.000000e+00
      vertex   9.704111e+00  1.500108e+00  0.000000e+00
    endloop
  endfacet
  facet normal -0.000000e+00  0.000000e+00 -1.000000e+00
    outer loop
      vertex   1.190148e+01  4.211035e+00  0.000000e+00
      vertex   9.704111e+00  1.500108e+00  0.000000e+00
      vertex   9.974999e+00  5.125163e+00  0.000000e+00
    endloop
  endfacet
  facet normal  0.000000e+00  0.000000e+00 -1.000000e+00
    outer loop
      vertex   9.974999e+00  5.125163e+00  0.000000e+00
      vertex   9.704111e+00  1.500108e+00  0.000000e+00
      vertex   7.625362e+00  2.635191e+00  0.000000e+00
    endloop
  endfacet
  facet normal -0.000000e+00  0.000000e+00 -1.000000e+00
    outer loop
      vertex   9.974999e+00  5.125163e+00  0.000000e+00
      vertex   7.625362e+00  2.635191e+00  0.000000e+00
      vertex   8.220098e+00  6.336484e+00  0.000000e+00
    endloop
  endfacet
  facet normal  0.000000e+00  0.000000e+00 -1.000000e+00
    outer loop
      vertex   8.220098e+00  6.336484e+00  0.000000e+00
      vertex   7.625362e+00  2.635191e+00  0.000000e+00
      vertex   5.729311e+00  4.054556e+00  0.000000e+00
    endloop
  endfacet
  facet normal -0.000000e+00  0.000000e+00 -1.000000e+00
    outer loop
      vertex   8.220098e+00  6.336484e+00  0.000000e+00
      vertex   5.729311e+00  4.054556e+00  0.000000e+00
      vertex   6.682232e+00  7.813624e+00  0.000000e+00
    endloop
  endfacet
  facet normal  0.000000e+00  0.000000e+00 -1.000000e+00
    outer loop
      vertex   6.682232e+00  7.813624e+00  0.000000e+00
      vertex   5.729311e+00  4.054556e+00  0.000000e+00
      vertex   4.054556e+00  5.729311e+00  0.000000e+00
    endloop
  endfacet
  facet normal -0.000000e+00  0.000000e+00 -1.000000e+00
    outer loop
      vertex   6.682232e+00  7.813624e+00  0.000000e+00
      vertex   4.054556e+00  5.729311e+00  0.000000e+00
      vertex   5.401231e+00  9.518328e+00  0.000000e+00
    endloop
  endfacet
  facet normal  0.000000e+00  0.000000e+00 -1.000000e+00
    outer loop
      vertex   5.401231e+00  9.518328e+00  0.000000e+00
      vertex   4.054556e+00  5.729311e+00  0.000000e+00
      vertex   2.635191e+00  7.625362e+00  0.000000e+00
    endloop
  endfacet
  facet normal -0.000000e+00  0.000000e+00 -1.000000e+00
    outer loop
      vertex   5.401231e+00  9.518328e+00  0.000000e+00
      vertex   2.635191e+00  7.625362e+00  0.000000e+00
      vertex   4.410273e+00  1.140644e+01  0.000000e+00
    endloop
  endfacet
  facet normal  0.000000e+00  0.000000e+00 -1.000000e+00
    outer loop
      vertex   4.410273e+00  1.140644e+01  0.000000e+00
      vertex   2.635191e+00  7.625362e+00  0.000000e+00
      vertex   1.500108e+00  9.704111e+00  0.000000e+00
    endloop
  endfacet
  facet normal -0.000000e+00  0.000000e+00 -1.000000e+00
    outer loop
      vertex   4.410273e+00  1.140644e+01  0.000000e+00
      vertex   1.500108e+00  9.704111e+00  0.000000e+00
      vertex   3.735021e+00  1.342907e+01  0.000000e+00
    endloop
  endfacet
  facet normal  0.000000e+00  0.000000e+00 -1.000000e+00
    outer loop
      vertex   3.735021e+00  1.342907e+01  0.000000e+00
      vertex   1.500108e+00  9.704111e+00  0.000000e+00
      vertex   6.724167e-01  1.192324e+01  0.000000e+00
    endloop
  endfacet
  facet normal -0.000000e+00  0.000000e+00 -1.000000e+00
    outer loop
      vertex   3.735021e+00  1.342907e+01  0.000000e+00
      vertex   6.724167e-01  1.192324e+01  0.000000e+00
      vertex   3.392966e+00  1.553382e+01  0.000000e+00
    endloop
  endfacet
  facet normal  0.000000e+00  0.000000e+00 -1.000000e+00
    outer loop
      vertex   2.719262e+01  2.455984e+01  0.000000e+00
      vertex   3.056481e+01  2.557464e+01  0.000000e+00
      vertex   2.833229e+01  2.275758e+01  0.000000e+00
    endloop
  endfacet
  facet normal  0.000000e+00  0.000000e+00 -1.000000e+00
    outer loop
      vertex   2.833229e+01  2.275758e+01  0.000000e+00
      vertex   3.056481e+01  2.557464e+01  0.000000e+00
      vertex   3.169989e+01  2.349589e+01  0.000000e+00
    endloop
  endfacet
  facet normal  0.000000e+00  0.000000e+00 -1.000000e+00
    outer loop
      vertex   2.833229e+01  2.275758e+01  0.000000e+00
      vertex   3.169989e+01  2.349589e+01  0.000000e+00
      vertex   2.916811e+01  2.079585e+01  0.000000e+00
    endloop
  endfacet
  facet normal  0.000000e+00  0.000000e+00 -1.000000e+00
    outer loop
      vertex   2.916811e+01  2.079585e+01  0.000000e+00
      vertex   3.169989e+01  2.349589e+01  0.000000e+00
      vertex   3.252758e+01  2.127676e+01  0.000000e+00
    endloop
  endfacet
  facet normal  0.000000e+00  0.000000e+00 -1.000000e+00
    outer loop
      vertex   2.916811e+01  2.079585e+01  0.000000e+00
      vertex   3.252758e+01  2.127676e+01  0.000000e+00
      vertex   2.967842e+01  1.872545e+01  0.000000e+00
    endloop
  endfacet
  facet normal  0.000000e+00  0.000000e+00 -1.000000e+00
    outer loop
      vertex   2.967842e+01  1.872545e+01  0.000000e+00
      vertex   3.252758e+01  2.127676e+01  0.000000e+00
      vertex   3.303104e+01  1.896243e+01  0.000000e+00
    endloop
  endfacet
  facet normal  0.000000e+00  0.000000e+00 -1.000000e+00
    outer loop
      vertex   2.967842e+01  1.872545e+01  0.000000e+00
      vertex   3.303104e+01  1.896243e+01  0.000000e+00
      vertex   2.985000e+01  1.660000e+01  0.000000e+00
    endloop
  endfacet
  facet normal  0.000000e+00  0.000000e+00 -1.000000e+00
    outer loop
      vertex   2.985000e+01  1.660000e+01  0.000000e+00
      vertex   3.303104e+01  1.896243e+01  0.000000e+00
      vertex   3.320000e+01  1.660000e+01  0.000000e+00
    endloop
  endfacet
  facet normal  0.000000e+00 -0.000000e+00 -1.000000e+00
    outer loop
      vertex   2.985000e+01  1.660000e+01  0.000000e+00
      vertex   3.320000e+01  1.660000e+01  0.000000e+00
      vertex   2.967842e+01  1.447455e+01  0.000000e+00
    endloop
  endfacet
  facet normal  0.000000e+00  0.000000e+00 -1.000000e+00
    outer loop
      vertex   2.967842e+01  1.447455e+01  0.000000e+00
      vertex   3.320000e+01  1.660000e+01  0.000000e+00
      vertex   3.303104e+01  1.423757e+01  0.000000e+00
    endloop
  endfacet
  facet normal  0.000000e+00 -0.000000e+00 -1.000000e+00
    outer loop
      vertex   2.967842e+01  1.447455e+01  0.000000e+00
      vertex   3.303104e+01  1.423757e+01  0.000000e+00
      vertex   2.916811e+01  1.240415e+01  0.000000e+00
    endloop
  endfacet
  facet normal  0.000000e+00  0.000000e+00 -1.000000e+00
    outer loop
      vertex   2.916811e+01  1.240415e+01  0.000000e+00
      vertex   3.303104e+01  1.423757e+01  0.000000e+00
      vertex   3.252758e+01  1.192324e+01  0.000000e+00
    endloop
  endfacet
  facet normal  0.000000e+00 -0.000000e+00 -1.000000e+00
    outer loop
      vertex   2.916811e+01  1.240415e+01  0.000000e+00
      vertex   3.252758e+01  1.192324e+01  0.000000e+00
      vertex   2.833229e+01  1.044242e+01  0.000000e+00
    endloop
  endfacet
  facet normal  0.000000e+00  0.000000e+00 -1.000000e+00
    outer loop
      vertex   2.833229e+01  1.044242e+01  0.000000e+00
      vertex   3.252758e+01  1.192324e+01  0.000000e+00
      vertex   3.169989e+01  9.704111e+00  0.000000e+00
    endloop
  endfacet
  facet normal  0.000000e+00  0.000000e+00 -1.000000e+00
    outer loop
      vertex   2.833229e+01  1.044242e+01  0.000000e+00
      vertex   3.169989e+01  9.704111e+00  0.000000e+00
      vertex   3.056481e+01  7.625362e+00  0.000000e+00
    endloop
  endfacet
  facet normal  0.000000e+00  0.000000e+00 -1.000000e+00
    outer loop
      vertex   1.190148e+01  2.898896e+01  0.000000e+00
      vertex   1.192324e+01  3.252758e+01  0.000000e+00
      vertex   1.394966e+01  2.958223e+01  0.000000e+00
    endloop
  endfacet
  facet normal  0.000000e+00  0.000000e+00 -1.000000e+00
    outer loop
      vertex   1.394966e+01  2.958223e+01  0.000000e+00
      vertex   1.192324e+01  3.252758e+01  0.000000e+00
      vertex   1.423757e+01  3.303104e+01  0.000000e+00
    endloop
  endfacet
  facet normal  0.000000e+00  0.000000e+00 -1.000000e+00
    outer loop
      vertex   1.394966e+01  2.958223e+01  0.000000e+00
      vertex   1.423757e+01  3.303104e+01  0.000000e+00
      vertex   1.606648e+01  2.983925e+01  0.000000e+00
    endloop
  endfacet
  facet normal  0.000000e+00  0.000000e+00 -1.000000e+00
    outer loop
      vertex   1.606648e+01  2.983925e+01  0.000000e+00
      vertex   1.423757e+01  3.303104e+01  0.000000e+00
      vertex   1.660000e+01  3.320000e+01  0.000000e+00
    endloop
  endfacet
  facet normal  0.000000e+00  0.000000e+00 -1.000000e+00
    outer loop
      vertex   1.606648e+01  2.983925e+01  0.000000e+00
      vertex   1.660000e+01  3.320000e+01  0.000000e+00
      vertex   1.819711e+01  2.975339e+01  0.000000e+00
    endloop
  endfacet
  facet normal  0.000000e+00  0.000000e+00 -1.000000e+00
    outer loop
      vertex   1.819711e+01  2.975339e+01  0.000000e+00
      vertex   1.660000e+01  3.320000e+01  0.000000e+00
      vertex   1.896243e+01  3.303104e+01  0.000000e+00
    endloop
  endfacet
  facet normal  0.000000e+00  0.000000e+00 -1.000000e+00
    outer loop
      vertex   1.819711e+01  2.975339e+01  0.000000e+00
      vertex   1.896243e+01  3.303104e+01  0.000000e+00
      vertex   2.028638e+01  2.932686e+01  0.000000e+00
    endloop
  endfacet
  facet normal  0.000000e+00  0.000000e+00 -1.000000e+00
    outer loop
      vertex   2.028638e+01  2.932686e+01  0.000000e+00
      vertex   1.896243e+01  3.303104e+01  0.000000e+00
      vertex   2.127676e+01  3.252758e+01  0.000000e+00
    endloop
  endfacet
  facet normal  0.000000e+00  0.000000e+00 -1.000000e+00
    outer loop
      vertex   2.028638e+01  2.932686e+01  0.000000e+00
      vertex   2.127676e+01  3.252758e+01  0.000000e+00
      vertex   2.228018e+01  2.857072e+01  0.000000e+00
    endloop
  endfacet
  facet normal  0.000000e+00  0.000000e+00 -1.000000e+00
    outer loop
      vertex   2.228018e+01  2.857072e+01  0.000000e+00
      vertex   2.127676e+01  3.252758e+01  0.000000e+00
      vertex   2.349589e+01  3.169989e+01  0.000000e+00
    endloop
  endfacet
  facet normal  0.000000e+00  0.000000e+00 -1.000000e+00
    outer loop
      vertex   2.228018e+01  2.857072e+01  0.000000e+00
      vertex   2.349589e+01  3.169989e+01  0.000000e+00
      vertex   2.412686e+01  2.750454e+01  0.000000e+00
    endloop
  endfacet
  facet normal  0.000000e+00  0.000000e+00 -1.000000e+00
    outer loop
      vertex   2.412686e+01  2.750454e+01  0.000000e+00
      vertex   2.349589e+01  3.169989e+01  0.000000e+00
      vertex   2.557464e+01  3.056481e+01  0.000000e+00
    endloop
  endfacet
  facet normal  0.000000e+00  0.000000e+00 -1.000000e+00
    outer loop
      vertex   2.412686e+01  2.750454e+01  0.000000e+00
      vertex   2.557464e+01  3.056481e+01  0.000000e+00
      vertex   2.577860e+01  2.615593e+01  0.000000e+00
    endloop
  endfacet
  facet normal  0.000000e+00  0.000000e+00 -1.000000e+00
    outer loop
      vertex   2.577860e+01  2.615593e+01  0.000000e+00
      vertex   2.557464e+01  3.056481e+01  0.000000e+00
      vertex   2.747069e+01  2.914544e+01  0.000000e+00
    endloop
  endfacet
  facet normal  0.000000e+00  0.000000e+00 -1.000000e+00
    outer loop
      vertex   2.577860e+01  2.615593e+01  0.000000e+00
      vertex   2.747069e+01  2.914544e+01  0.000000e+00
      vertex   2.719262e+01  2.455984e+01  0.000000e+00
    endloop
  endfacet
  facet normal  0.000000e+00  0.000000e+00 -1.000000e+00
    outer loop
      vertex   2.719262e+01  2.455984e+01  0.000000e+00
      vertex   2.747069e+01  2.914544e+01  0.000000e+00
      vertex   2.914544e+01  2.747069e+01  0.000000e+00
    endloop
  endfacet
  facet normal  0.000000e+00  0.000000e+00 -1.000000e+00
    outer loop
      vertex   2.719262e+01  2.455984e+01  0.000000e+00
      vertex   2.914544e+01  2.747069e+01  0.000000e+00
      vertex   3.056481e+01  2.557464e+01  0.000000e+00
    endloop
  endfacet
  facet normal  0.000000e+00  0.000000e+00 -1.000000e+00
    outer loop
      vertex   6.724167e-01  1.192324e+01  0.000000e+00
      vertex   1.689643e-01  1.423757e+01  0.000000e+00
      vertex   3.392966e+00  1.553382e+01  0.000000e+00
    endloop
  endfacet
  facet normal -0.000000e+00  0.000000e+00 -1.000000e+00
    outer loop
      vertex   3.392966e+00  1.553382e+01  0.000000e+00
      vertex   1.689643e-01  1.423757e+01  0.000000e+00
      vertex   0.000000e+00  1.660000e+01  0.000000e+00
    endloop
  endfacet
  facet normal  0.000000e+00  0.000000e+00 -1.000000e+00
    outer loop
      vertex   3.392966e+00  1.553382e+01  0.000000e+00
      vertex   0.000000e+00  1.660000e+01  0.000000e+00
      vertex   3.392966e+00  1.766618e+01  0.000000e+00
    endloop
  endfacet
  facet normal -0.000000e+00  0.000000e+00 -1.000000e+00
    outer loop
      vertex   3.392966e+00  1.766618e+01  0.000000e+00
      vertex   0.000000e+00  1.660000e+01  0.000000e+00
      vertex   1.689643e-01  1.896243e+01  0.000000e+00
    endloop
  endfacet
  facet normal  0.000000e+00  0.000000e+00 -1.000000e+00
    outer loop
      vertex   3.392966e+00  1.766618e+01  0.000000e+00
      vertex   1.689643e-01  1.896243e+01  0.000000e+00
      vertex   3.735021e+00  1.977093e+01  0.000000e+00
    endloop
  endfacet
  facet normal -0.000000e+00  0.000000e+00 -1.000000e+00
    outer loop
      vertex   3.735021e+00  1.977093e+01  0.000000e+00
      vertex   1.689643e-01  1.896243e+01  0.000000e+00
      vertex   6.724167e-01  2.127676e+01  0.000000e+00
    endloop
  endfacet
  facet normal  0.000000e+00  0.000000e+00 -1.000000e+00
    outer loop
      vertex   3.735021e+00  1.977093e+01  0.000000e+00
      vertex   6.724167e-01  2.127676e+01  0.000000e+00
      vertex   4.410273e+00  2.179356e+01  0.000000e+00
    endloop
  endfacet
  facet normal -0.000000e+00  0.000000e+00 -1.000000e+00
    outer loop
      vertex   4.410273e+00  2.179356e+01  0.000000e+00
      vertex   6.724167e-01  2.127676e+01  0.000000e+00
      vertex   1.500108e+00  2.349589e+01  0.000000e+00
    endloop
  endfacet
  facet normal  0.000000e+00  0.000000e+00 -1.000000e+00
    outer loop
      vertex   4.410273e+00  2.179356e+01  0.000000e+00
      vertex   1.500108e+00  2.349589e+01  0.000000e+00
      vertex   5.401231e+00  2.368167e+01  0.000000e+00
    endloop
  endfacet
  facet normal -0.000000e+00  0.000000e+00 -1.000000e+00
    outer loop
      vertex   5.401231e+00  2.368167e+01  0.000000e+00
      vertex   1.500108e+00  2.349589e+01  0.000000e+00
      vertex   2.635191e+00  2.557464e+01  0.000000e+00
    endloop
  endfacet
  facet normal  0.000000e+00  0.000000e+00 -1.000000e+00
    outer loop
      vertex   5.401231e+00  2.368167e+01  0.000000e+00
      vertex   2.635191e+00  2.557464e+01  0.000000e+00
      vertex   6.682232e+00  2.538638e+01  0.000000e+00
    endloop
  endfacet
  facet normal  0.000000e+00  0.000000e+00 -1.000000e+00
    outer loop
      vertex   6.682232e+00  2.538638e+01  0.000000e+00
      vertex   2.635191e+00  2.557464e+01  0.000000e+00
      vertex   4.054556e+00  2.747069e+01  0.000000e+00
    endloop
  endfacet
  facet normal  0.000000e+00  0.000000e+00 -1.000000e+00
    outer loop
      vertex   6.682232e+00  2.538638e+01  0.000000e+00
      vertex   4.054556e+00  2.747069e+01  0.000000e+00
      vertex   8.220098e+00  2.686352e+01  0.000000e+00
    endloop
  endfacet
  facet normal  0.000000e+00  0.000000e+00 -1.000000e+00
    outer loop
      vertex   8.220098e+00  2.686352e+01  0.000000e+00
      vertex   4.054556e+00  2.747069e+01  0.000000e+00
      vertex   5.729311e+00  2.914544e+01  0.000000e+00
    endloop
  endfacet
  facet normal  0.000000e+00  0.000000e+00 -1.000000e+00
    outer loop
      vertex   8.220098e+00  2.686352e+01  0.000000e+00
      vertex   5.729311e+00  2.914544e+01  0.000000e+00
      vertex   9.974999e+00  2.807484e+01  0.000000e+00
    endloop
  endfacet
  facet normal  0.000000e+00  0.000000e+00 -1.000000e+00
    outer loop
      vertex   9.974999e+00  2.807484e+01  0.000000e+00
      vertex   5.729311e+00  2.914544e+01  0.000000e+00
      vertex   7.625362e+00  3.056481e+01  0.000000e+00
    endloop
  endfacet
  facet normal  0.000000e+00  0.000000e+00 -1.000000e+00
    outer loop
      vertex   9.974999e+00  2.807484e+01  0.000000e+00
      vertex   7.625362e+00  3.056481e+01  0.000000e+00
      vertex   1.190148e+01  2.898896e+01  0.000000e+00
    endloop
  endfacet
  facet normal  0.000000e+00  0.000000e+00 -1.000000e+00
    outer loop
      vertex   1.190148e+01  2.898896e+01  0.000000e+00
      vertex   7.625362e+00  3.056481e+01  0.000000e+00
      vertex   9.704111e+00  3.169989e+01  0.000000e+00
    endloop
  endfacet
  facet normal  0.000000e+00  0.000000e+00 -1.000000e+00
    outer loop
      vertex   1.190148e+01  2.898896e+01  0.000000e+00
      vertex   9.704111e+00  3.169989e+01  0.000000e+00
      vertex   1.192324e+01  3.252758e+01  0.000000e+00
    endloop
  endfacet
  facet normal -9.967573e-01 -8.046712e-02  0.000000e+00
    outer loop
      vertex   2.985000e+01  1.660000e+01  0.000000e+00
      vertex   2.985000e+01  1.660000e+01  7.800000e+01
      vertex   2.967842e+01  1.872545e+01  0.000000e+00
    endloop
  endfacet
  facet normal -9.967573e-01 -8.046712e-02  0.000000e+00
    outer loop
      vertex   2.967842e+01  1.872545e+01  0.000000e+00
      vertex   2.985000e+01  1.660000e+01  7.800000e+01
      vertex   2.967842e+01  1.872545e+01  7.800000e+01
    endloop
  endfacet
  facet normal -9.709419e-01 -2.393152e-01  0.000000e+00
    outer loop
      vertex   2.967842e+01  1.872545e+01  0.000000e+00
      vertex   2.967842e+01  1.872545e+01  7.800000e+01
      vertex   2.916811e+01  2.079585e+01  0.000000e+00
    endloop
  endfacet
  facet normal -9.709419e-01 -2.393152e-01  0.000000e+00
    outer loop
      vertex   2.916811e+01  2.079585e+01  0.000000e+00
      vertex   2.967842e+01  1.872545e+01  7.800000e+01
      vertex   2.916811e+01  2.079585e+01  7.800000e+01
    endloop
  endfacet
  facet normal -9.199795e-01 -3.919666e-01  0.000000e+00
    outer loop
      vertex   2.916811e+01  2.079585e+01  0.000000e+00
      vertex   2.916811e+01  2.079585e+01  7.800000e+01
      vertex   2.833229e+01  2.275758e+01  0.000000e+00
    endloop
  endfacet
  facet normal -9.199795e-01 -3.919666e-01  0.000000e+00
    outer loop
      vertex   2.833229e+01  2.275758e+01  0.000000e+00
      vertex   2.916811e+01  2.079585e+01  7.800000e+01
      vertex   2.833229e+01  2.275758e+01  7.800000e+01
    endloop
  endfacet
  facet normal -8.451899e-01 -5.344661e-01  0.000000e+00
    outer loop
      vertex   2.833229e+01  2.275758e+01  0.000000e+00
      vertex   2.833229e+01  2.275758e+01  7.800000e+01
      vertex   2.719262e+01  2.455984e+01  0.000000e+00
    endloop
  endfacet
  facet normal -8.451899e-01 -5.344661e-01  0.000000e+00
    outer loop
      vertex   2.719262e+01  2.455984e+01  0.000000e+00
      vertex   2.833229e+01  2.275758e+01  7.800000e+01
      vertex   2.719262e+01  2.455984e+01  7.800000e+01
    endloop
  endfacet
  facet normal -7.485105e-01 -6.631230e-01  0.000000e+00
    outer loop
      vertex   2.719262e+01  2.455984e+01  0.000000e+00
      vertex   2.719262e+01  2.455984e+01  7.800000e+01
      vertex   2.577860e+01  2.615593e+01  0.000000e+00
    endloop
  endfacet
  facet normal -7.485105e-01 -6.631230e-01  0.000000e+00
    outer loop
      vertex   2.577860e+01  2.615593e+01  0.000000e+00
      vertex   2.719262e+01  2.455984e+01  7.800000e+01
      vertex   2.577860e+01  2.615593e+01  7.800000e+01
    endloop
  endfacet
  facet normal -6.324457e-01 -7.746047e-01  0.000000e+00
    outer loop
      vertex   2.577860e+01  2.615593e+01  0.000000e+00
      vertex   2.577860e+01  2.615593e+01  7.800000e+01
      vertex   2.412686e+01  2.750454e+01  0.000000e+00
    endloop
  endfacet
  facet normal -6.324457e-01 -7.746047e-01  0.000000e+00
    outer loop
      vertex   2.412686e+01  2.750454e+01  0.000000e+00
      vertex   2.577860e+01  2.615593e+01  7.800000e+01
      vertex   2.412686e+01  2.750454e+01  7.800000e+01
    endloop
  endfacet
  facet normal -5.000003e-01 -8.660252e-01  0.000000e+00
    outer loop
      vertex   2.412686e+01  2.750454e+01  0.000000e+00
      vertex   2.412686e+01  2.750454e+01  7.800000e+01
      vertex   2.228018e+01  2.857072e+01  0.000000e+00
    endloop
  endfacet
  facet normal -5.000003e-01 -8.660252e-01  0.000000e+00
    outer loop
      vertex   2.228018e+01  2.857072e+01  0.000000e+00
      vertex   2.412686e+01  2.750454e+01  7.800000e+01
      vertex   2.228018e+01  2.857072e+01  7.800000e+01
    endloop
  endfacet
  facet normal -3.546043e-01 -9.350165e-01  0.000000e+00
    outer loop
      vertex   2.228018e+01  2.857072e+01  0.000000e+00
      vertex   2.228018e+01  2.857072e+01  7.800000e+01
      vertex   2.028638e+01  2.932686e+01  0.000000e+00
    endloop
  endfacet
  facet normal -3.546043e-01 -9.350165e-01  0.000000e+00
    outer loop
      vertex   2.028638e+01  2.932686e+01  0.000000e+00
      vertex   2.228018e+01  2.857072e+01  7.800000e+01
      vertex   2.028638e+01  2.932686e+01  7.800000e+01
    endloop
  endfacet
  facet normal -2.000264e-01 -9.797905e-01  0.000000e+00
    outer loop
      vertex   2.028638e+01  2.932686e+01  0.000000e+00
      vertex   2.028638e+01  2.932686e+01  7.800000e+01
      vertex   1.819711e+01  2.975339e+01  0.000000e+00
    endloop
  endfacet
  facet normal -2.000264e-01 -9.797905e-01  0.000000e+00
    outer loop
      vertex   1.819711e+01  2.975339e+01  0.000000e+00
      vertex   2.028638e+01  2.932686e+01  7.800000e+01
      vertex   1.819711e+01  2.975339e+01  7.800000e+01
    endloop
  endfacet
  facet normal -4.026574e-02 -9.991890e-01  0.000000e+00
    outer loop
      vertex   1.819711e+01  2.975339e+01  0.000000e+00
      vertex   1.819711e+01  2.975339e+01  7.800000e+01
      vertex   1.606648e+01  2.983925e+01  0.000000e+00
    endloop
  endfacet
  facet normal -4.026574e-02 -9.991890e-01  0.000000e+00
    outer loop
      vertex   1.606648e+01  2.983925e+01  0.000000e+00
      vertex   1.819711e+01  2.975339e+01  7.800000e+01
      vertex   1.606648e+01  2.983925e+01  7.800000e+01
    endloop
  endfacet
  facet normal  1.205369e-01 -9.927089e-01  0.000000e+00
    outer loop
      vertex   1.606648e+01  2.983925e+01  0.000000e+00
      vertex   1.606648e+01  2.983925e+01  7.800000e+01
      vertex   1.394966e+01  2.958223e+01  0.000000e+00
    endloop
  endfacet
  facet normal  1.205369e-01 -9.927089e-01  0.000000e+00
    outer loop
      vertex   1.394966e+01  2.958223e+01  0.000000e+00
      vertex   1.606648e+01  2.983925e+01  7.800000e+01
      vertex   1.394966e+01  2.958223e+01  7.800000e+01
    endloop
  endfacet
  facet normal  2.782177e-01 -9.605180e-01  0.000000e+00
    outer loop
      vertex   1.394966e+01  2.958223e+01  0.000000e+00
      vertex   1.394966e+01  2.958223e+01  7.800000e+01
      vertex   1.190148e+01  2.898896e+01  0.000000e+00
    endloop
  endfacet
  facet normal  2.782177e-01 -9.605180e-01  0.000000e+00
    outer loop
      vertex   1.190148e+01  2.898896e+01  0.000000e+00
      vertex   1.394966e+01  2.958223e+01  7.800000e+01
      vertex   1.190148e+01  2.898896e+01  7.800000e+01
    endloop
  endfacet
  facet normal  4.286921e-01 -9.034506e-01  0.000000e+00
    outer loop
      vertex   1.190148e+01  2.898896e+01  0.000000e+00
      vertex   1.190148e+01  2.898896e+01  7.800000e+01
      vertex   9.974999e+00  2.807484e+01  0.000000e+00
    endloop
  endfacet
  facet normal  4.286921e-01 -9.034506e-01  0.000000e+00
    outer loop
      vertex   9.974999e+00  2.807484e+01  0.000000e+00
      vertex   1.190148e+01  2.898896e+01  7.800000e+01
      vertex   9.974999e+00  2.807484e+01  7.800000e+01
    endloop
  endfacet
  facet normal  5.680648e-01 -8.229838e-01  0.000000e+00
    outer loop
      vertex   9.974999e+00  2.807484e+01  0.000000e+00
      vertex   9.974999e+00  2.807484e+01  7.800000e+01
      vertex   8.220098e+00  2.686352e+01  0.000000e+00
    endloop
  endfacet
  facet normal  5.680648e-01 -8.229838e-01  0.000000e+00
    outer loop
      vertex   8.220098e+00  2.686352e+01  0.000000e+00
      vertex   9.974999e+00  2.807484e+01  7.800000e+01
      vertex   8.220098e+00  2.686352e+01  7.800000e+01
    endloop
  endfacet
  facet normal  6.927242e-01 -7.212026e-01  0.000000e+00
    outer loop
      vertex   8.220098e+00  2.686352e+01  0.000000e+00
      vertex   8.220098e+00  2.686352e+01  7.800000e+01
      vertex   6.682232e+00  2.538638e+01  0.000000e+00
    endloop
  endfacet
  facet normal  6.927242e-01 -7.212026e-01  0.000000e+00
    outer loop
      vertex   6.682232e+00  2.538638e+01  0.000000e+00
      vertex   8.220098e+00  2.686352e+01  7.800000e+01
      vertex   6.682232e+00  2.538638e+01  7.800000e+01
    endloop
  endfacet
  facet normal  7.994431e-01 -6.007418e-01  0.000000e+00
    outer loop
      vertex   6.682232e+00  2.538638e+01  0.000000e+00
      vertex   6.682232e+00  2.538638e+01  7.800000e+01
      vertex   5.401231e+00  2.368167e+01  0.000000e+00
    endloop
  endfacet
  facet normal  7.994431e-01 -6.007418e-01  0.000000e+00
    outer loop
      vertex   5.401231e+00  2.368167e+01  0.000000e+00
      vertex   6.682232e+00  2.538638e+01  7.800000e+01
      vertex   5.401231e+00  2.368167e+01  7.800000e+01
    endloop
  endfacet
  facet normal  8.854559e-01 -4.647233e-01  0.000000e+00
    outer loop
      vertex   5.401231e+00  2.368167e+01  0.000000e+00
      vertex   5.401231e+00  2.368167e+01  7.800000e+01
      vertex   4.410273e+00  2.179356e+01  0.000000e+00
    endloop
  endfacet
  facet normal  8.854559e-01 -4.647233e-01  0.000000e+00
    outer loop
      vertex   4.410273e+00  2.179356e+01  0.000000e+00
      vertex   5.401231e+00  2.368167e+01  7.800000e+01
      vertex   4.410273e+00  2.179356e+01  7.800000e+01
    endloop
  endfacet
  facet normal  9.485363e-01 -3.166682e-01  0.000000e+00
    outer loop
      vertex   4.410273e+00  2.179356e+01  0.000000e+00
      vertex   4.410273e+00  2.179356e+01  7.800000e+01
      vertex   3.735021e+00  1.977093e+01  0.000000e+00
    endloop
  endfacet
  facet normal  9.485363e-01 -3.166682e-01  0.000000e+00
    outer loop
      vertex   3.735021e+00  1.977093e+01  0.000000e+00
      vertex   4.410273e+00  2.179356e+01  7.800000e+01
      vertex   3.735021e+00  1.977093e+01  7.800000e+01
    endloop
  endfacet
  facet normal  9.870503e-01 -1.604111e-01  0.000000e+00
    outer loop
      vertex   3.735021e+00  1.977093e+01  0.000000e+00
      vertex   3.735021e+00  1.977093e+01  7.800000e+01
      vertex   3.392966e+00  1.766618e+01  0.000000e+00
    endloop
  endfacet
  facet normal  9.870503e-01 -1.604111e-01  0.000000e+00
    outer loop
      vertex   3.392966e+00  1.766618e+01  0.000000e+00
      vertex   3.735021e+00  1.977093e+01  7.800000e+01
      vertex   3.392966e+00  1.766618e+01  7.800000e+01
    endloop
  endfacet
  facet normal  1.000000e+00  0.000000e+00 -0.000000e+00
    outer loop
      vertex   3.392966e+00  1.766618e+01  0.000000e+00
      vertex   3.392966e+00  1.766618e+01  7.800000e+01
      vertex   3.392966e+00  1.553382e+01  0.000000e+00
    endloop
  endfacet
  facet normal  1.000000e+00  0.000000e+00  0.000000e+00
    outer loop
      vertex   3.392966e+00  1.553382e+01  0.000000e+00
      vertex   3.392966e+00  1.766618e+01  7.800000e+01
      vertex   3.392966e+00  1.553382e+01  7.800000e+01
    endloop
  endfacet
  facet normal  9.870503e-01  1.604112e-01 -0.000000e+00
    outer loop
      vertex   3.392966e+00  1.553382e+01  0.000000e+00
      vertex   3.392966e+00  1.553382e+01  7.800000e+01
      vertex   3.735021e+00  1.342907e+01  0.000000e+00
    endloop
  endfacet
  facet normal  9.870503e-01  1.604112e-01 -0.000000e+00
    outer loop
      vertex   3.735021e+00  1.342907e+01  0.000000e+00
      vertex   3.392966e+00  1.553382e+01  7.800000e+01
      vertex   3.735021e+00  1.342907e+01  7.800000e+01
    endloop
  endfacet
  facet normal  9.485363e-01  3.166682e-01 -0.000000e+00
    outer loop
      vertex   3.735021e+00  1.342907e+01  0.000000e+00
      vertex   3.735021e+00  1.342907e+01  7.800000e+01
      vertex   4.410273e+00  1.140644e+01  0.000000e+00
    endloop
  endfacet
  facet normal  9.485363e-01  3.166682e-01 -0.000000e+00
    outer loop
      vertex   4.410273e+00  1.140644e+01  0.000000e+00
      vertex   3.735021e+00  1.342907e+01  7.800000e+01
      vertex   4.410273e+00  1.140644e+01  7.800000e+01
    endloop
  endfacet
  facet normal  8.854560e-01  4.647232e-01 -0.000000e+00
    outer loop
      vertex   4.410273e+00  1.140644e+01  0.000000e+00
      vertex   4.410273e+00  1.140644e+01  7.800000e+01
      vertex   5.401231e+00  9.518328e+00  0.000000e+00
    endloop
  endfacet
  facet normal  8.854560e-01  4.647232e-01 -0.000000e+00
    outer loop
      vertex   5.401231e+00  9.518328e+00  0.000000e+00
      vertex   4.410273e+00  1.140644e+01  7.800000e+01
      vertex   5.401231e+00  9.518328e+00  7.800000e+01
    endloop
  endfacet
  facet normal  7.994431e-01  6.007419e-01 -0.000000e+00
    outer loop
      vertex   5.401231e+00  9.518328e+00  0.000000e+00
      vertex   5.401231e+00  9.518328e+00  7.800000e+01
      vertex   6.682232e+00  7.813624e+00  0.000000e+00
    endloop
  endfacet
  facet normal  7.994431e-01  6.007419e-01 -0.000000e+00
    outer loop
      vertex   6.682232e+00  7.813624e+00  0.000000e+00
      vertex   5.401231e+00  9.518328e+00  7.800000e+01
      vertex   6.682232e+00  7.813624e+00  7.800000e+01
    endloop
  endfacet
  facet normal  6.927241e-01  7.212027e-01 -0.000000e+00
    outer loop
      vertex   6.682232e+00  7.813624e+00  0.000000e+00
      vertex   6.682232e+00  7.813624e+00  7.800000e+01
      vertex   8.220098e+00  6.336484e+00  0.000000e+00
    endloop
  endfacet
  facet normal  6.927241e-01  7.212027e-01 -0.000000e+00
    outer loop
      vertex   8.220098e+00  6.336484e+00  0.000000e+00
      vertex   6.682232e+00  7.813624e+00  7.800000e+01
      vertex   8.220098e+00  6.336484e+00  7.800000e+01
    endloop
  endfacet
  facet normal  5.680648e-01  8.229838e-01 -0.000000e+00
    outer loop
      vertex   8.220098e+00  6.336484e+00  0.000000e+00
      vertex   8.220098e+00  6.336484e+00  7.800000e+01
      vertex   9.974999e+00  5.125163e+00  0.000000e+00
    endloop
  endfacet
  facet normal  5.680648e-01  8.229838e-01 -0.000000e+00
    outer loop
      vertex   9.974999e+00  5.125163e+00  0.000000e+00
      vertex   8.220098e+00  6.336484e+00  7.800000e+01
      vertex   9.974999e+00  5.125163e+00  7.800000e+01
    endloop
  endfacet
  facet normal  4.286925e-01  9.034505e-01 -0.000000e+00
    outer loop
      vertex   9.974999e+00  5.125163e+00  0.000000e+00
      vertex   9.974999e+00  5.125163e+00  7.800000e+01
      vertex   1.190148e+01  4.211035e+00  0.000000e+00
    endloop
  endfacet
  facet normal  4.286925e-01  9.034505e-01 -0.000000e+00
    outer loop
      vertex   1.190148e+01  4.211035e+00  0.000000e+00
      vertex   9.974999e+00  5.125163e+00  7.800000e+01
      vertex   1.190148e+01  4.211035e+00  7.800000e+01
    endloop
  endfacet
  facet normal  2.782174e-01  9.605181e-01 -0.000000e+00
    outer loop
      vertex   1.190148e+01  4.211035e+00  0.000000e+00
      vertex   1.190148e+01  4.211035e+00  7.800000e+01
      vertex   1.394966e+01  3.617774e+00  0.000000e+00
    endloop
  endfacet
  facet normal  2.782174e-01  9.605181e-01 -0.000000e+00
    outer loop
      vertex   1.394966e+01  3.617774e+00  0.000000e+00
      vertex   1.190148e+01  4.211035e+00  7.800000e+01
      vertex   1.394966e+01  3.617774e+00  7.800000e+01
    endloop
  endfacet
  facet normal  1.205368e-01  9.927089e-01 -0.000000e+00
    outer loop
      vertex   1.394966e+01  3.617774e+00  0.000000e+00
      vertex   1.394966e+01  3.617774e+00  7.800000e+01
      vertex   1.606648e+01  3.360745e+00  0.000000e+00
    endloop
  endfacet
  facet normal  1.205368e-01  9.927089e-01 -0.000000e+00
    outer loop
      vertex   1.606648e+01  3.360745e+00  0.000000e+00
      vertex   1.394966e+01  3.617774e+00  7.800000e+01
      vertex   1.606648e+01  3.360745e+00  7.800000e+01
    endloop
  endfacet
  facet normal -4.026585e-02  9.991890e-01  0.000000e+00
    outer loop
      vertex   1.606648e+01  3.360745e+00  0.000000e+00
      vertex   1.606648e+01  3.360745e+00  7.800000e+01
      vertex   1.819711e+01  3.446607e+00  0.000000e+00
    endloop
  endfacet
  facet normal -4.026585e-02  9.991890e-01  0.000000e+00
    outer loop
      vertex   1.819711e+01  3.446607e+00  0.000000e+00
      vertex   1.606648e+01  3.360745e+00  7.800000e+01
      vertex   1.819711e+01  3.446607e+00  7.800000e+01
    endloop
  endfacet
  facet normal -2.000259e-01  9.797906e-01  0.000000e+00
    outer loop
      vertex   1.819711e+01  3.446607e+00  0.000000e+00
      vertex   1.819711e+01  3.446607e+00  7.800000e+01
      vertex   2.028638e+01  3.873135e+00  0.000000e+00
    endloop
  endfacet
  facet normal -2.000259e-01  9.797906e-01  0.000000e+00
    outer loop
      vertex   2.028638e+01  3.873135e+00  0.000000e+00
      vertex   1.819711e+01  3.446607e+00  7.800000e+01
      vertex   2.028638e+01  3.873135e+00  7.800000e+01
    endloop
  endfacet
  facet normal -3.546048e-01  9.350163e-01  0.000000e+00
    outer loop
      vertex   2.028638e+01  3.873135e+00  0.000000e+00
      vertex   2.028638e+01  3.873135e+00  7.800000e+01
      vertex   2.228018e+01  4.629282e+00  0.000000e+00
    endloop
  endfacet
  facet normal -3.546048e-01  9.350163e-01  0.000000e+00
    outer loop
      vertex   2.228018e+01  4.629282e+00  0.000000e+00
      vertex   2.028638e+01  3.873135e+00  7.800000e+01
      vertex   2.228018e+01  4.629282e+00  7.800000e+01
    endloop
  endfacet
  facet normal -4.999998e-01  8.660254e-01  0.000000e+00
    outer loop
      vertex   2.228018e+01  4.629282e+00  0.000000e+00
      vertex   2.228018e+01  4.629282e+00  7.800000e+01
      vertex   2.412686e+01  5.695463e+00  0.000000e+00
    endloop
  endfacet
  facet normal -4.999998e-01  8.660254e-01  0.000000e+00
    outer loop
      vertex   2.412686e+01  5.695463e+00  0.000000e+00
      vertex   2.228018e+01  4.629282e+00  7.800000e+01
      vertex   2.412686e+01  5.695463e+00  7.800000e+01
    endloop
  endfacet
  facet normal -6.324457e-01  7.746047e-01  0.000000e+00
    outer loop
      vertex   2.412686e+01  5.695463e+00  0.000000e+00
      vertex   2.412686e+01  5.695463e+00  7.800000e+01
      vertex   2.577860e+01  7.044067e+00  0.000000e+00
    endloop
  endfacet
  facet normal -6.324457e-01  7.746047e-01  0.000000e+00
    outer loop
      vertex   2.577860e+01  7.044067e+00  0.000000e+00
      vertex   2.412686e+01  5.695463e+00  7.800000e+01
      vertex   2.577860e+01  7.044067e+00  7.800000e+01
    endloop
  endfacet
  facet normal -7.485107e-01  6.631227e-01  0.000000e+00
    outer loop
      vertex   2.577860e+01  7.044067e+00  0.000000e+00
      vertex   2.577860e+01  7.044067e+00  7.800000e+01
      vertex   2.719262e+01  8.640164e+00  0.000000e+00
    endloop
  endfacet
  facet normal -7.485107e-01  6.631227e-01  0.000000e+00
    outer loop
      vertex   2.719262e+01  8.640164e+00  0.000000e+00
      vertex   2.577860e+01  7.044067e+00  7.800000e+01
      vertex   2.719262e+01  8.640164e+00  7.800000e+01
    endloop
  endfacet
  facet normal -8.451898e-01  5.344663e-01  0.000000e+00
    outer loop
      vertex   2.719262e+01  8.640164e+00  0.000000e+00
      vertex   2.719262e+01  8.640164e+00  7.800000e+01
      vertex   2.833229e+01  1.044242e+01  0.000000e+00
    endloop
  endfacet
  facet normal -8.451898e-01  5.344663e-01  0.000000e+00
    outer loop
      vertex   2.833229e+01  1.044242e+01  0.000000e+00
      vertex   2.719262e+01  8.640164e+00  7.800000e+01
      vertex   2.833229e+01  1.044242e+01  7.800000e+01
    endloop
  endfacet
  facet normal -9.199796e-01  3.919665e-01  0.000000e+00
    outer loop
      vertex   2.833229e+01  1.044242e+01  0.000000e+00
      vertex   2.833229e+01  1.044242e+01  7.800000e+01
      vertex   2.916811e+01  1.240415e+01  0.000000e+00
    endloop
  endfacet
  facet normal -9.199796e-01  3.919665e-01  0.000000e+00
    outer loop
      vertex   2.916811e+01  1.240415e+01  0.000000e+00
      vertex   2.833229e+01  1.044242e+01  7.800000e+01
      vertex   2.916811e+01  1.240415e+01  7.800000e+01
    endloop
  endfacet
  facet normal -9.709419e-01  2.393153e-01  0.000000e+00
    outer loop
      vertex   2.916811e+01  1.240415e+01  0.000000e+00
      vertex   2.916811e+01  1.240415e+01  7.800000e+01
      vertex   2.967842e+01  1.447455e+01  0.000000e+00
    endloop
  endfacet
  facet normal -9.709419e-01  2.393153e-01  0.000000e+00
    outer loop
      vertex   2.967842e+01  1.447455e+01  0.000000e+00
      vertex   2.916811e+01  1.240415e+01  7.800000e+01
      vertex   2.967842e+01  1.447455e+01  7.800000e+01
    endloop
  endfacet
  facet normal -9.967573e-01  8.046705e-02  0.000000e+00
    outer loop
      vertex   2.967842e+01  1.447455e+01  0.000000e+00
      vertex   2.967842e+01  1.447455e+01  7.800000e+01
      vertex   2.985000e+01  1.660000e+01  0.000000e+00
    endloop
  endfacet
  facet normal -9.967573e-01  8.046705e-02  0.000000e+00
    outer loop
      vertex   2.985000e+01  1.660000e+01  0.000000e+00
      vertex   2.967842e+01  1.447455e+01  7.800000e+01
      vertex   2.985000e+01  1.660000e+01  7.800000e+01
    endloop
  endfacet
endsolid vcg
