ply
format ascii 1.0
comment VCGLIB generated
element vertex 166
property float x
property float y
property float z
element face 332
property list uchar int vertex_indices
end_header
0 16.6 0 
0.1689643 18.96243 78 
0.1689643 18.96243 0 
0.6724167 21.27676 78 
0.6724167 21.27676 0 
1.500108 23.49589 78 
1.500108 23.49589 0 
2.635191 25.57464 78 
2.635191 25.57464 0 
4.054556 27.47069 78 
4.054556 27.47069 0 
5.729311 29.14544 78 
5.729311 29.14544 0 
7.625362 30.56481 78 
7.625362 30.56481 0 
9.704111 31.69989 78 
9.704111 31.69989 0 
11.92324 32.52758 78 
11.92324 32.52758 0 
14.23757 33.03104 78 
14.23757 33.03104 0 
16.6 33.2 78 
16.6 33.2 0 
18.96243 33.03104 78 
18.96243 33.03104 0 
21.27676 32.52758 78 
21.27676 32.52758 0 
23.49589 31.69989 78 
23.49589 31.69989 0 
25.57464 30.56481 78 
25.57464 30.56481 0 
27.47069 29.14544 78 
27.47069 29.14544 0 
29.14544 27.47069 78 
29.14544 27.47069 0 
30.56481 25.57464 78 
30.56481 25.57464 0 
31.69989 23.49589 78 
31.69989 23.49589 0 
32.52758 21.27676 78 
32.52758 21.27676 0 
33.03104 18.96243 78 
33.03104 18.96243 0 
33.2 16.6 78 
33.2 16.6 0 
33.03104 14.23757 78 
33.03104 14.23757 0 
32.52758 11.92324 78 
32.52758 11.92324 0 
31.69989 9.704111 78 
31.69989 9.704111 0 
30.56481 7.625362 78 
30.56481 7.625362 0 
29.14544 5.729311 78 
29.14544 5.729311 0 
27.47069 4.054556 78 
27.47069 4.054556 0 
25.57464 2.635191 78 
25.57464 2.635191 0 
23.49589 1.500108 78 
23.49589 1.500108 0 
21.27676 0.6724167 78 
21.27676 0.6724167 0 
18.96243 0.1689643 78 
18.96243 0.1689643 0 
16.6 0 78 
16.6 0 0 
14.23757 0.1689643 78 
14.23757 0.1689643 0 
11.92324 0.6724167 78 
11.92324 0.6724167 0 
9.704111 1.500108 78 
9.704111 1.500108 0 
7.625362 2.635191 78 
7.625362 2.635191 0 
5.729311 4.054556 78 
5.729311 4.054556 0 
4.054556 5.729311 78 
4.054556 5.729311 0 
2.635191 7.625362 78 
2.635191 7.625362 0 
1.500108 9.704111 78 
1.500108 9.704111 0 
0.6724167 11.92324 78 
0.6724167 11.92324 0 
0.1689643 14.23757 78 
0.1689643 14.23757 0 
0 16.6 78 
11.90148 4.211035 78 
13.94966 3.617774 78 
16.06648 3.360745 78 
18.19711 3.446607 78 
20.28638 3.873135 78 
22.28018 4.629282 78 
24.12686 5.695463 78 
25.7786 7.044067 78 
27.19262 8.640164 78 
3.392966 17.66618 78 
3.392966 15.53382 78 
3.735021 13.42907 78 
4.410273 11.40644 78 
5.401231 9.518328 78 
6.682232 7.813624 78 
8.220098 6.336484 78 
9.974999 5.125163 78 
13.94966 29.58223 78 
11.90148 28.98896 78 
9.974999 28.07484 78 
8.220098 26.86352 78 
6.682232 25.38638 78 
5.401231 23.68167 78 
4.410273 21.79356 78 
3.735021 19.77093 78 
28.33229 22.75758 78 
27.19262 24.55984 78 
25.7786 26.15593 78 
24.12686 27.50454 78 
22.28018 28.57072 78 
20.28638 29.32686 78 
18.19711 29.75339 78 
16.06648 29.83925 78 
28.33229 10.44242 78 
29.16811 12.40415 78 
29.67842 14.47455 78 
29.85 16.6 78 
29.67842 18.72545 78 
29.16811 20.79585 78 
28.33229 10.44242 0 
27.19262 8.640164 0 
25.7786 7.044067 0 
24.12686 5.695463 0 
22.28018 4.629282 0 
20.28638 3.873135 0 
18.19711 3.446607 0 
16.06648 3.360745 0 
13.94966 3.617774 0 
11.90148 4.211035 0 
9.974999 5.125163 0 
8.220098 6.336484 0 
6.682232 7.813624 0 
5.401231 9.518328 0 
4.410273 11.40644 0 
3.735021 13.42907 0 
3.392966 15.53382 0 
27.19262 24.55984 0 
28.33229 22.75758 0 
29.16811 20.79585 0 
29.67842 18.72545 0 
29.85 16.6 0 
29.67842 14.47455 0 
29.16811 12.40415 0 
11.90148 28.98896 0 
13.94966 29.58223 0 
16.06648 29.83925 0 
18.19711 29.75339 0 
20.28638 29.32686 0 
22.28018 28.57072 0 
24.12686 27.50454 0 
25.7786 26.15593 0 
3.392966 17.66618 0 
3.735021 19.77093 0 
4.410273 21.79356 0 
5.401231 23.68167 0 
6.682232 25.38638 0 
8.220098 26.86352 0 
9.974999 28.07484 0 
3 0 1 2 
3 2 1 3 
3 2 3 4 
3 4 3 5 
3 4 5 6 
3 6 5 7 
3 6 7 8 
3 8 7 9 
3 8 9 10 
3 10 9 11 
3 10 11 12 
3 12 11 13 
3 12 13 14 
3 14 13 15 
3 14 15 16 
3 16 15 17 
3 16 17 18 
3 18 17 19 
3 18 19 20 
3 20 19 21 
3 20 21 22 
3 22 21 23 
3 22 23 24 
3 24 23 25 
3 24 25 26 
3 26 25 27 
3 26 27 28 
3 28 27 29 
3 28 29 30 
3 30 29 31 
3 30 31 32 
3 32 31 33 
3 32 33 34 
3 34 33 35 
3 34 35 36 
3 36 35 37 
3 36 37 38 
3 38 37 39 
3 38 39 40 
3 40 39 41 
3 40 41 42 
3 42 41 43 
3 42 43 44 
3 44 43 45 
3 44 45 46 
3 46 45 47 
3 46 47 48 
3 48 47 49 
3 48 49 50 
3 50 49 51 
3 50 51 52 
3 52 51 53 
3 52 53 54 
3 54 53 55 
3 54 55 56 
3 56 55 57 
3 56 57 58 
3 58 57 59 
3 58 59 60 
3 60 59 61 
3 60 61 62 
3 62 61 63 
3 62 63 64 
3 64 63 65 
3 64 65 66 
3 66 65 67 
3 66 67 68 
3 68 67 69 
3 68 69 70 
3 70 69 71 
3 70 71 72 
3 72 71 73 
3 72 73 74 
3 74 73 75 
3 74 75 76 
3 76 75 77 
3 76 77 78 
3 78 77 79 
3 78 79 80 
3 80 79 81 
3 80 81 82 
3 82 81 83 
3 82 83 84 
3 84 83 85 
3 84 85 86 
3 86 85 87 
3 86 87 0 
3 0 87 1 
3 88 69 89 
3 89 69 67 
3 89 67 90 
3 90 67 65 
3 90 65 91 
3 91 65 63 
3 91 63 92 
3 92 63 61 
3 92 61 93 
3 93 61 59 
3 93 59 94 
3 94 59 57 
3 94 57 95 
3 95 57 55 
3 95 55 96 
3 97 87 98 
3 98 87 85 
3 98 85 99 
3 99 85 83 
3 99 83 100 
3 100 83 81 
3 100 81 101 
3 101 81 79 
3 101 79 102 
3 102 79 77 
3 102 77 103 
3 103 77 75 
3 103 75 104 
3 104 75 73 
3 104 73 88 
3 88 73 71 
3 88 71 69 
3 105 17 106 
3 106 17 15 
3 106 15 107 
3 107 15 13 
3 107 13 108 
3 108 13 11 
3 108 11 109 
3 109 11 9 
3 109 9 110 
3 110 9 7 
3 110 7 111 
3 111 7 5 
3 111 5 112 
3 112 5 3 
3 112 3 97 
3 97 3 1 
3 97 1 87 
3 113 35 114 
3 114 35 33 
3 114 33 115 
3 115 33 31 
3 115 31 116 
3 116 31 29 
3 116 29 117 
3 117 29 27 
3 117 27 118 
3 118 27 25 
3 118 25 119 
3 119 25 23 
3 119 23 120 
3 120 23 21 
3 120 21 105 
3 105 21 19 
3 105 19 17 
3 55 53 96 
3 96 53 51 
3 96 51 121 
3 121 51 49 
3 121 49 122 
3 122 49 47 
3 122 47 123 
3 123 47 45 
3 123 45 124 
3 124 45 43 
3 124 43 125 
3 125 43 41 
3 125 41 126 
3 126 41 39 
3 126 39 113 
3 113 39 37 
3 113 37 35 
3 127 52 128 
3 128 52 54 
3 128 54 129 
3 129 54 56 
3 129 56 130 
3 130 56 58 
3 130 58 131 
3 131 58 60 
3 131 60 132 
3 132 60 62 
3 132 62 133 
3 133 62 64 
3 133 64 134 
3 134 64 66 
3 134 66 135 
3 66 68 135 
3 135 68 70 
3 135 70 136 
3 136 70 72 
3 136 72 137 
3 137 72 74 
3 137 74 138 
3 138 74 76 
3 138 76 139 
3 139 76 78 
3 139 78 140 
3 140 78 80 
3 140 80 141 
3 141 80 82 
3 141 82 142 
3 142 82 84 
3 142 84 143 
3 144 36 145 
3 145 36 38 
3 145 38 146 
3 146 38 40 
3 146 40 147 
3 147 40 42 
3 147 42 148 
3 148 42 44 
3 148 44 149 
3 149 44 46 
3 149 46 150 
3 150 46 48 
3 150 48 127 
3 127 48 50 
3 127 50 52 
3 151 18 152 
3 152 18 20 
3 152 20 153 
3 153 20 22 
3 153 22 154 
3 154 22 24 
3 154 24 155 
3 155 24 26 
3 155 26 156 
3 156 26 28 
3 156 28 157 
3 157 28 30 
3 157 30 158 
3 158 30 32 
3 158 32 144 
3 144 32 34 
3 144 34 36 
3 84 86 143 
3 143 86 0 
3 143 0 159 
3 159 0 2 
3 159 2 160 
3 160 2 4 
3 160 4 161 
3 161 4 6 
3 161 6 162 
3 162 6 8 
3 162 8 163 
3 163 8 10 
3 163 10 164 
3 164 10 12 
3 164 12 165 
3 165 12 14 
3 165 14 151 
3 151 14 16 
3 151 16 18 
3 148 124 147 
3 147 124 125 
3 147 125 146 
3 146 125 126 
3 146 126 145 
3 145 126 113 
3 145 113 144 
3 144 113 114 
3 144 114 158 
3 158 114 115 
3 158 115 157 
3 157 115 116 
3 157 116 156 
3 156 116 117 
3 156 117 155 
3 155 117 118 
3 155 118 154 
3 154 118 119 
3 154 119 153 
3 153 119 120 
3 153 120 152 
3 152 120 105 
3 152 105 151 
3 151 105 106 
3 151 106 165 
3 165 106 107 
3 165 107 164 
3 164 107 108 
3 164 108 163 
3 163 108 109 
3 163 109 162 
3 162 109 110 
3 162 110 161 
3 161 110 111 
3 161 111 160 
3 160 111 112 
3 160 112 159 
3 159 112 97 
3 159 97 143 
3 143 97 98 
3 143 98 142 
3 142 98 99 
3 142 99 141 
3 141 99 100 
3 141 100 140 
3 140 100 101 
3 140 101 139 
3 139 101 102 
3 139 102 138 
3 138 102 103 
3 138 103 137 
3 137 103 104 
3 137 104 136 
3 136 104 88 
3 136 88 135 
3 135 88 89 
3 135 89 134 
3 134 89 90 
3 134 90 133 
3 133 90 91 
3 133 91 132 
3 132 91 92 
3 132 92 131 
3 131 92 93 
3 131 93 130 
3 130 93 94 
3 130 94 129 
3 129 94 95 
3 129 95 128 
3 128 95 96 
3 128 96 127 
3 127 96 121 
3 127 121 150 
3 150 121 122 
3 150 122 149 
3 149 122 123 
3 149 123 148 
3 148 123 124 
